<svg xmlns="http://www.w3.org/2000/svg" viewBox="-98.09 -24.00 801.34 354.30" width="801" height="354">
<polygon points="0.00,-13.00 11.28,-8.90 0.00,-4.79 -11.28,-8.90" fill="#0e4429"/>
<polygon points="-11.28,4.10 -11.28,-8.90 0.00,-4.79 0.00,8.21" fill="#0c3b24"/>
<polygon points="0.00,8.21 0.00,-4.79 11.28,-8.90 11.28,4.10" fill="#0a321e"/>
<polygon points="-13.16,4.79 -1.88,8.89 -13.16,13.00 -24.43,8.89" fill="#161b22"/>
<polygon points="13.16,4.79 24.43,8.89 13.16,13.00 1.88,8.89" fill="#161b22"/>
<polygon points="-26.31,9.58 -15.04,13.68 -26.31,17.79 -37.59,13.68" fill="#161b22"/>
<polygon points="0.00,9.58 11.28,13.68 0.00,17.79 -11.28,13.68" fill="#161b22"/>
<polygon points="26.31,9.58 37.59,13.68 26.31,17.79 15.04,13.68" fill="#161b22"/>
<polygon points="-39.47,14.36 -28.19,18.47 -39.47,22.57 -50.74,18.47" fill="#161b22"/>
<polygon points="-13.16,14.36 -1.88,18.47 -13.16,22.57 -24.43,18.47" fill="#161b22"/>
<polygon points="13.16,14.36 24.43,18.47 13.16,22.57 1.88,18.47" fill="#161b22"/>
<polygon points="39.47,14.36 50.74,18.47 39.47,22.57 28.19,18.47" fill="#161b22"/>
<polygon points="-52.62,19.15 -41.35,23.26 -52.62,27.36 -63.90,23.26" fill="#161b22"/>
<polygon points="-26.31,19.15 -15.04,23.26 -26.31,27.36 -37.59,23.26" fill="#161b22"/>
<polygon points="0.00,19.15 11.28,23.26 0.00,27.36 -11.28,23.26" fill="#161b22"/>
<polygon points="26.31,19.15 37.59,23.26 26.31,27.36 15.04,23.26" fill="#161b22"/>
<polygon points="52.62,19.15 63.90,23.26 52.62,27.36 41.35,23.26" fill="#161b22"/>
<polygon points="-65.78,23.94 -54.50,28.05 -65.78,32.15 -77.05,28.05" fill="#161b22"/>
<polygon points="-39.47,23.94 -28.19,28.05 -39.47,32.15 -50.74,28.05" fill="#161b22"/>
<polygon points="-13.16,23.94 -1.88,28.05 -13.16,32.15 -24.43,28.05" fill="#161b22"/>
<polygon points="13.16,23.94 24.43,28.05 13.16,32.15 1.88,28.05" fill="#161b22"/>
<polygon points="39.47,23.94 50.74,28.05 39.47,32.15 28.19,28.05" fill="#161b22"/>
<polygon points="65.78,23.94 77.05,28.05 65.78,32.15 54.50,28.05" fill="#161b22"/>
<polygon points="-78.93,28.73 -67.66,32.83 -78.93,36.94 -90.21,32.83" fill="#161b22"/>
<polygon points="-52.62,28.73 -41.35,32.83 -52.62,36.94 -63.90,32.83" fill="#161b22"/>
<polygon points="-26.31,28.73 -15.04,32.83 -26.31,36.94 -37.59,32.83" fill="#161b22"/>
<polygon points="0.00,28.73 11.28,32.83 0.00,36.94 -11.28,32.83" fill="#161b22"/>
<polygon points="26.31,28.73 37.59,32.83 26.31,36.94 15.04,32.83" fill="#161b22"/>
<polygon points="52.62,28.73 63.90,32.83 52.62,36.94 41.35,32.83" fill="#161b22"/>
<polygon points="78.93,28.73 90.21,32.83 78.93,36.94 67.66,32.83" fill="#161b22"/>
<polygon points="-65.78,33.52 -54.50,37.62 -65.78,41.73 -77.05,37.62" fill="#161b22"/>
<polygon points="-39.47,33.52 -28.19,37.62 -39.47,41.73 -50.74,37.62" fill="#161b22"/>
<polygon points="-13.16,33.52 -1.88,37.62 -13.16,41.73 -24.43,37.62" fill="#161b22"/>
<polygon points="13.16,33.52 24.43,37.62 13.16,41.73 1.88,37.62" fill="#161b22"/>
<polygon points="39.47,33.52 50.74,37.62 39.47,41.73 28.19,37.62" fill="#161b22"/>
<polygon points="65.78,33.52 77.05,37.62 65.78,41.73 54.50,37.62" fill="#161b22"/>
<polygon points="92.09,22.52 103.37,26.62 92.09,30.73 80.81,26.62" fill="#0e4429"/>
<polygon points="80.81,37.62 80.81,26.62 92.09,30.73 92.09,41.73" fill="#0c3b24"/>
<polygon points="92.09,41.73 92.09,30.73 103.37,26.62 103.37,37.62" fill="#0a321e"/>
<polygon points="-52.62,38.31 -41.35,42.41 -52.62,46.51 -63.90,42.41" fill="#161b22"/>
<polygon points="-26.31,38.31 -15.04,42.41 -26.31,46.51 -37.59,42.41" fill="#161b22"/>
<polygon points="0.00,38.31 11.28,42.41 0.00,46.51 -11.28,42.41" fill="#161b22"/>
<polygon points="26.31,38.31 37.59,42.41 26.31,46.51 15.04,42.41" fill="#161b22"/>
<polygon points="52.62,38.31 63.90,42.41 52.62,46.51 41.35,42.41" fill="#161b22"/>
<polygon points="78.93,38.31 90.21,42.41 78.93,46.51 67.66,42.41" fill="#161b22"/>
<polygon points="105.25,38.31 116.52,42.41 105.25,46.51 93.97,42.41" fill="#161b22"/>
<polygon points="-39.47,43.09 -28.19,47.20 -39.47,51.30 -50.74,47.20" fill="#161b22"/>
<polygon points="-13.16,43.09 -1.88,47.20 -13.16,51.30 -24.43,47.20" fill="#161b22"/>
<polygon points="13.16,43.09 24.43,47.20 13.16,51.30 1.88,47.20" fill="#161b22"/>
<polygon points="39.47,43.09 50.74,47.20 39.47,51.30 28.19,47.20" fill="#161b22"/>
<polygon points="65.78,43.09 77.05,47.20 65.78,51.30 54.50,47.20" fill="#161b22"/>
<polygon points="118.40,43.09 129.68,47.20 118.40,51.30 107.12,47.20" fill="#161b22"/>
<polygon points="92.09,35.09 103.37,39.20 92.09,43.30 80.81,39.20" fill="#0e4429"/>
<polygon points="80.81,47.20 80.81,39.20 92.09,43.30 92.09,51.30" fill="#0c3b24"/>
<polygon points="92.09,51.30 92.09,43.30 103.37,39.20 103.37,47.20" fill="#0a321e"/>
<polygon points="-26.31,47.88 -15.04,51.99 -26.31,56.09 -37.59,51.99" fill="#161b22"/>
<polygon points="0.00,47.88 11.28,51.99 0.00,56.09 -11.28,51.99" fill="#161b22"/>
<polygon points="26.31,47.88 37.59,51.99 26.31,56.09 15.04,51.99" fill="#161b22"/>
<polygon points="52.62,47.88 63.90,51.99 52.62,56.09 41.35,51.99" fill="#161b22"/>
<polygon points="78.93,47.88 90.21,51.99 78.93,56.09 67.66,51.99" fill="#161b22"/>
<polygon points="105.25,47.88 116.52,51.99 105.25,56.09 93.97,51.99" fill="#161b22"/>
<polygon points="131.56,47.88 142.83,51.99 131.56,56.09 120.28,51.99" fill="#161b22"/>
<polygon points="13.16,52.67 24.43,56.78 13.16,60.88 1.88,56.78" fill="#161b22"/>
<polygon points="39.47,52.67 50.74,56.78 39.47,60.88 28.19,56.78" fill="#161b22"/>
<polygon points="65.78,52.67 77.05,56.78 65.78,60.88 54.50,56.78" fill="#161b22"/>
<polygon points="92.09,52.67 103.37,56.78 92.09,60.88 80.81,56.78" fill="#161b22"/>
<polygon points="118.40,52.67 129.68,56.78 118.40,60.88 107.12,56.78" fill="#161b22"/>
<polygon points="144.71,52.67 155.99,56.78 144.71,60.88 133.44,56.78" fill="#161b22"/>
<polygon points="-13.16,41.67 -1.88,45.78 -13.16,49.88 -24.43,45.78" fill="#0e4429"/>
<polygon points="-24.43,56.78 -24.43,45.78 -13.16,49.88 -13.16,60.88" fill="#0c3b24"/>
<polygon points="-13.16,60.88 -13.16,49.88 -1.88,45.78 -1.88,56.78" fill="#0a321e"/>
<polygon points="26.31,57.46 37.59,61.56 26.31,65.67 15.04,61.56" fill="#161b22"/>
<polygon points="52.62,57.46 63.90,61.56 52.62,65.67 41.35,61.56" fill="#161b22"/>
<polygon points="78.93,57.46 90.21,61.56 78.93,65.67 67.66,61.56" fill="#161b22"/>
<polygon points="105.25,57.46 116.52,61.56 105.25,65.67 93.97,61.56" fill="#161b22"/>
<polygon points="131.56,57.46 142.83,61.56 131.56,65.67 120.28,61.56" fill="#161b22"/>
<polygon points="157.87,57.46 169.14,61.56 157.87,65.67 146.59,61.56" fill="#161b22"/>
<polygon points="0.00,46.46 11.28,50.56 0.00,54.67 -11.28,50.56" fill="#0e4429"/>
<polygon points="-11.28,61.56 -11.28,50.56 0.00,54.67 0.00,65.67" fill="#0c3b24"/>
<polygon points="0.00,65.67 0.00,54.67 11.28,50.56 11.28,61.56" fill="#0a321e"/>
<polygon points="13.16,62.25 24.43,66.35 13.16,70.46 1.88,66.35" fill="#161b22"/>
<polygon points="39.47,62.25 50.74,66.35 39.47,70.46 28.19,66.35" fill="#161b22"/>
<polygon points="65.78,62.25 77.05,66.35 65.78,70.46 54.50,66.35" fill="#161b22"/>
<polygon points="92.09,62.25 103.37,66.35 92.09,70.46 80.81,66.35" fill="#161b22"/>
<polygon points="118.40,62.25 129.68,66.35 118.40,70.46 107.12,66.35" fill="#161b22"/>
<polygon points="144.71,62.25 155.99,66.35 144.71,70.46 133.44,66.35" fill="#161b22"/>
<polygon points="171.02,62.25 182.30,66.35 171.02,70.46 159.75,66.35" fill="#161b22"/>
<polygon points="26.31,67.04 37.59,71.14 26.31,75.24 15.04,71.14" fill="#161b22"/>
<polygon points="52.62,67.04 63.90,71.14 52.62,75.24 41.35,71.14" fill="#161b22"/>
<polygon points="78.93,67.04 90.21,71.14 78.93,75.24 67.66,71.14" fill="#161b22"/>
<polygon points="105.25,67.04 116.52,71.14 105.25,75.24 93.97,71.14" fill="#161b22"/>
<polygon points="131.56,67.04 142.83,71.14 131.56,75.24 120.28,71.14" fill="#161b22"/>
<polygon points="157.87,67.04 169.14,71.14 157.87,75.24 146.59,71.14" fill="#161b22"/>
<polygon points="184.18,67.04 195.46,71.14 184.18,75.24 172.90,71.14" fill="#161b22"/>
<polygon points="39.47,71.82 50.74,75.93 39.47,80.03 28.19,75.93" fill="#161b22"/>
<polygon points="65.78,71.82 77.05,75.93 65.78,80.03 54.50,75.93" fill="#161b22"/>
<polygon points="92.09,71.82 103.37,75.93 92.09,80.03 80.81,75.93" fill="#161b22"/>
<polygon points="118.40,71.82 129.68,75.93 118.40,80.03 107.12,75.93" fill="#161b22"/>
<polygon points="144.71,71.82 155.99,75.93 144.71,80.03 133.44,75.93" fill="#161b22"/>
<polygon points="171.02,71.82 182.30,75.93 171.02,80.03 159.75,75.93" fill="#161b22"/>
<polygon points="197.34,71.82 208.61,75.93 197.34,80.03 186.06,75.93" fill="#161b22"/>
<polygon points="52.62,76.61 63.90,80.72 52.62,84.82 41.35,80.72" fill="#161b22"/>
<polygon points="78.93,76.61 90.21,80.72 78.93,84.82 67.66,80.72" fill="#161b22"/>
<polygon points="105.25,76.61 116.52,80.72 105.25,84.82 93.97,80.72" fill="#161b22"/>
<polygon points="131.56,76.61 142.83,80.72 131.56,84.82 120.28,80.72" fill="#161b22"/>
<polygon points="157.87,76.61 169.14,80.72 157.87,84.82 146.59,80.72" fill="#161b22"/>
<polygon points="184.18,76.61 195.46,80.72 184.18,84.82 172.90,80.72" fill="#161b22"/>
<polygon points="210.49,76.61 221.77,80.72 210.49,84.82 199.21,80.72" fill="#161b22"/>
<polygon points="65.78,81.40 77.05,85.51 65.78,89.61 54.50,85.51" fill="#161b22"/>
<polygon points="92.09,81.40 103.37,85.51 92.09,89.61 80.81,85.51" fill="#161b22"/>
<polygon points="118.40,81.40 129.68,85.51 118.40,89.61 107.12,85.51" fill="#161b22"/>
<polygon points="144.71,81.40 155.99,85.51 144.71,89.61 133.44,85.51" fill="#161b22"/>
<polygon points="171.02,81.40 182.30,85.51 171.02,89.61 159.75,85.51" fill="#161b22"/>
<polygon points="197.34,81.40 208.61,85.51 197.34,89.61 186.06,85.51" fill="#161b22"/>
<polygon points="223.65,81.40 234.92,85.51 223.65,89.61 212.37,85.51" fill="#161b22"/>
<polygon points="78.93,86.19 90.21,90.29 78.93,94.40 67.66,90.29" fill="#161b22"/>
<polygon points="105.25,86.19 116.52,90.29 105.25,94.40 93.97,90.29" fill="#161b22"/>
<polygon points="131.56,86.19 142.83,90.29 131.56,94.40 120.28,90.29" fill="#161b22"/>
<polygon points="157.87,86.19 169.14,90.29 157.87,94.40 146.59,90.29" fill="#161b22"/>
<polygon points="210.49,86.19 221.77,90.29 210.49,94.40 199.21,90.29" fill="#161b22"/>
<polygon points="236.80,86.19 248.08,90.29 236.80,94.40 225.53,90.29" fill="#161b22"/>
<polygon points="184.18,75.19 195.46,79.29 184.18,83.40 172.90,79.29" fill="#0e4429"/>
<polygon points="172.90,90.29 172.90,79.29 184.18,83.40 184.18,94.40" fill="#0c3b24"/>
<polygon points="184.18,94.40 184.18,83.40 195.46,79.29 195.46,90.29" fill="#0a321e"/>
<polygon points="92.09,90.98 103.37,95.08 92.09,99.19 80.81,95.08" fill="#161b22"/>
<polygon points="118.40,90.98 129.68,95.08 118.40,99.19 107.12,95.08" fill="#161b22"/>
<polygon points="144.71,90.98 155.99,95.08 144.71,99.19 133.44,95.08" fill="#161b22"/>
<polygon points="171.02,90.98 182.30,95.08 171.02,99.19 159.75,95.08" fill="#161b22"/>
<polygon points="197.34,90.98 208.61,95.08 197.34,99.19 186.06,95.08" fill="#161b22"/>
<polygon points="223.65,90.98 234.92,95.08 223.65,99.19 212.37,95.08" fill="#161b22"/>
<polygon points="249.96,90.98 261.23,95.08 249.96,99.19 238.68,95.08" fill="#161b22"/>
<polygon points="105.25,95.77 116.52,99.87 105.25,103.97 93.97,99.87" fill="#161b22"/>
<polygon points="131.56,95.77 142.83,99.87 131.56,103.97 120.28,99.87" fill="#161b22"/>
<polygon points="157.87,95.77 169.14,99.87 157.87,103.97 146.59,99.87" fill="#161b22"/>
<polygon points="184.18,95.77 195.46,99.87 184.18,103.97 172.90,99.87" fill="#161b22"/>
<polygon points="210.49,95.77 221.77,99.87 210.49,103.97 199.21,99.87" fill="#161b22"/>
<polygon points="236.80,95.77 248.08,99.87 236.80,103.97 225.53,99.87" fill="#161b22"/>
<polygon points="263.11,95.77 274.39,99.87 263.11,103.97 251.84,99.87" fill="#161b22"/>
<polygon points="118.40,100.55 129.68,104.66 118.40,108.76 107.12,104.66" fill="#161b22"/>
<polygon points="144.71,100.55 155.99,104.66 144.71,108.76 133.44,104.66" fill="#161b22"/>
<polygon points="171.02,100.55 182.30,104.66 171.02,108.76 159.75,104.66" fill="#161b22"/>
<polygon points="197.34,100.55 208.61,104.66 197.34,108.76 186.06,104.66" fill="#161b22"/>
<polygon points="223.65,100.55 234.92,104.66 223.65,108.76 212.37,104.66" fill="#161b22"/>
<polygon points="249.96,100.55 261.23,104.66 249.96,108.76 238.68,104.66" fill="#161b22"/>
<polygon points="276.27,100.55 287.55,104.66 276.27,108.76 264.99,104.66" fill="#161b22"/>
<polygon points="131.56,105.34 142.83,109.45 131.56,113.55 120.28,109.45" fill="#161b22"/>
<polygon points="157.87,105.34 169.14,109.45 157.87,113.55 146.59,109.45" fill="#161b22"/>
<polygon points="184.18,105.34 195.46,109.45 184.18,113.55 172.90,109.45" fill="#161b22"/>
<polygon points="210.49,105.34 221.77,109.45 210.49,113.55 199.21,109.45" fill="#161b22"/>
<polygon points="236.80,105.34 248.08,109.45 236.80,113.55 225.53,109.45" fill="#161b22"/>
<polygon points="263.11,105.34 274.39,109.45 263.11,113.55 251.84,109.45" fill="#161b22"/>
<polygon points="289.43,105.34 300.70,109.45 289.43,113.55 278.15,109.45" fill="#161b22"/>
<polygon points="144.71,110.13 155.99,114.23 144.71,118.34 133.44,114.23" fill="#161b22"/>
<polygon points="171.02,110.13 182.30,114.23 171.02,118.34 159.75,114.23" fill="#161b22"/>
<polygon points="197.34,110.13 208.61,114.23 197.34,118.34 186.06,114.23" fill="#161b22"/>
<polygon points="223.65,110.13 234.92,114.23 223.65,118.34 212.37,114.23" fill="#161b22"/>
<polygon points="249.96,110.13 261.23,114.23 249.96,118.34 238.68,114.23" fill="#161b22"/>
<polygon points="276.27,94.13 287.55,98.23 276.27,102.34 264.99,98.23" fill="#0e4429"/>
<polygon points="264.99,114.23 264.99,98.23 276.27,102.34 276.27,118.34" fill="#0c3b24"/>
<polygon points="276.27,118.34 276.27,102.34 287.55,98.23 287.55,114.23" fill="#0a321e"/>
<polygon points="302.58,92.13 313.86,96.23 302.58,100.34 291.30,96.23" fill="#006d32"/>
<polygon points="291.30,114.23 291.30,96.23 302.58,100.34 302.58,118.34" fill="#005f2c"/>
<polygon points="302.58,118.34 302.58,100.34 313.86,96.23 313.86,114.23" fill="#005025"/>
<polygon points="157.87,114.92 169.14,119.02 157.87,123.13 146.59,119.02" fill="#161b22"/>
<polygon points="184.18,114.92 195.46,119.02 184.18,123.13 172.90,119.02" fill="#161b22"/>
<polygon points="210.49,114.92 221.77,119.02 210.49,123.13 199.21,119.02" fill="#161b22"/>
<polygon points="236.80,114.92 248.08,119.02 236.80,123.13 225.53,119.02" fill="#161b22"/>
<polygon points="263.11,103.92 274.39,108.02 263.11,112.13 251.84,108.02" fill="#0e4429"/>
<polygon points="251.84,119.02 251.84,108.02 263.11,112.13 263.11,123.13" fill="#0c3b24"/>
<polygon points="263.11,123.13 263.11,112.13 274.39,108.02 274.39,119.02" fill="#0a321e"/>
<polygon points="315.74,98.92 327.01,103.02 315.74,107.13 304.46,103.02" fill="#0e4429"/>
<polygon points="304.46,119.02 304.46,103.02 315.74,107.13 315.74,123.13" fill="#0c3b24"/>
<polygon points="315.74,123.13 315.74,107.13 327.01,103.02 327.01,119.02" fill="#0a321e"/>
<polygon points="289.43,96.92 300.70,101.02 289.43,105.13 278.15,101.02" fill="#39d353"/>
<polygon points="278.15,119.02 278.15,101.02 289.43,105.13 289.43,123.13" fill="#32b949"/>
<polygon points="289.43,123.13 289.43,105.13 300.70,101.02 300.70,119.02" fill="#2a9c3d"/>
<polygon points="171.02,119.71 182.30,123.81 171.02,127.92 159.75,123.81" fill="#161b22"/>
<polygon points="197.34,119.71 208.61,123.81 197.34,127.92 186.06,123.81" fill="#161b22"/>
<polygon points="223.65,119.71 234.92,123.81 223.65,127.92 212.37,123.81" fill="#161b22"/>
<polygon points="276.27,103.71 287.55,107.81 276.27,111.92 264.99,107.81" fill="#0e4429"/>
<polygon points="264.99,123.81 264.99,107.81 276.27,111.92 276.27,127.92" fill="#0c3b24"/>
<polygon points="276.27,127.92 276.27,111.92 287.55,107.81 287.55,123.81" fill="#0a321e"/>
<polygon points="302.58,105.71 313.86,109.81 302.58,113.92 291.30,109.81" fill="#0e4429"/>
<polygon points="291.30,123.81 291.30,109.81 302.58,113.92 302.58,127.92" fill="#0c3b24"/>
<polygon points="302.58,127.92 302.58,113.92 313.86,109.81 313.86,123.81" fill="#0a321e"/>
<polygon points="249.96,101.71 261.23,105.81 249.96,109.92 238.68,105.81" fill="#006d32"/>
<polygon points="238.68,123.81 238.68,105.81 249.96,109.92 249.96,127.92" fill="#005f2c"/>
<polygon points="249.96,127.92 249.96,109.92 261.23,105.81 261.23,123.81" fill="#005025"/>
<polygon points="328.89,101.71 340.17,105.81 328.89,109.92 317.62,105.81" fill="#006d32"/>
<polygon points="317.62,123.81 317.62,105.81 328.89,109.92 328.89,127.92" fill="#005f2c"/>
<polygon points="328.89,127.92 328.89,109.92 340.17,105.81 340.17,123.81" fill="#005025"/>
<polygon points="184.18,124.50 195.46,128.60 184.18,132.70 172.90,128.60" fill="#161b22"/>
<polygon points="210.49,124.50 221.77,128.60 210.49,132.70 199.21,128.60" fill="#161b22"/>
<polygon points="236.80,124.50 248.08,128.60 236.80,132.70 225.53,128.60" fill="#161b22"/>
<polygon points="315.74,124.50 327.01,128.60 315.74,132.70 304.46,128.60" fill="#161b22"/>
<polygon points="289.43,113.50 300.70,117.60 289.43,121.70 278.15,117.60" fill="#0e4429"/>
<polygon points="278.15,128.60 278.15,117.60 289.43,121.70 289.43,132.70" fill="#0c3b24"/>
<polygon points="289.43,132.70 289.43,121.70 300.70,117.60 300.70,128.60" fill="#0a321e"/>
<polygon points="342.05,108.50 353.32,112.60 342.05,116.70 330.77,112.60" fill="#0e4429"/>
<polygon points="330.77,128.60 330.77,112.60 342.05,116.70 342.05,132.70" fill="#0c3b24"/>
<polygon points="342.05,132.70 342.05,116.70 353.32,112.60 353.32,128.60" fill="#0a321e"/>
<polygon points="263.11,106.50 274.39,110.60 263.11,114.70 251.84,110.60" fill="#26a641"/>
<polygon points="251.84,128.60 251.84,110.60 263.11,114.70 263.11,132.70" fill="#219239"/>
<polygon points="263.11,132.70 263.11,114.70 274.39,110.60 274.39,128.60" fill="#1c7a30"/>
<polygon points="355.20,129.28 366.48,133.39 355.20,137.49 343.93,133.39" fill="#161b22"/>
<polygon points="197.34,121.28 208.61,125.39 197.34,129.49 186.06,125.39" fill="#0e4429"/>
<polygon points="186.06,133.39 186.06,125.39 197.34,129.49 197.34,137.49" fill="#0c3b24"/>
<polygon points="197.34,137.49 197.34,129.49 208.61,125.39 208.61,133.39" fill="#0a321e"/>
<polygon points="223.65,118.28 234.92,122.39 223.65,126.49 212.37,122.39" fill="#0e4429"/>
<polygon points="212.37,133.39 212.37,122.39 223.65,126.49 223.65,137.49" fill="#0c3b24"/>
<polygon points="223.65,137.49 223.65,126.49 234.92,122.39 234.92,133.39" fill="#0a321e"/>
<polygon points="276.27,118.28 287.55,122.39 276.27,126.49 264.99,122.39" fill="#0e4429"/>
<polygon points="264.99,133.39 264.99,122.39 276.27,126.49 276.27,137.49" fill="#0c3b24"/>
<polygon points="276.27,137.49 276.27,126.49 287.55,122.39 287.55,133.39" fill="#0a321e"/>
<polygon points="302.58,115.28 313.86,119.39 302.58,123.49 291.30,119.39" fill="#0e4429"/>
<polygon points="291.30,133.39 291.30,119.39 302.58,123.49 302.58,137.49" fill="#0c3b24"/>
<polygon points="302.58,137.49 302.58,123.49 313.86,119.39 313.86,133.39" fill="#0a321e"/>
<polygon points="328.89,118.28 340.17,122.39 328.89,126.49 317.62,122.39" fill="#0e4429"/>
<polygon points="317.62,133.39 317.62,122.39 328.89,126.49 328.89,137.49" fill="#0c3b24"/>
<polygon points="328.89,137.49 328.89,126.49 340.17,122.39 340.17,133.39" fill="#0a321e"/>
<polygon points="249.96,112.28 261.23,116.39 249.96,120.49 238.68,116.39" fill="#006d32"/>
<polygon points="238.68,133.39 238.68,116.39 249.96,120.49 249.96,137.49" fill="#005f2c"/>
<polygon points="249.96,137.49 249.96,120.49 261.23,116.39 261.23,133.39" fill="#005025"/>
<polygon points="342.05,134.07 353.32,138.18 342.05,142.28 330.77,138.18" fill="#161b22"/>
<polygon points="368.36,134.07 379.64,138.18 368.36,142.28 357.08,138.18" fill="#161b22"/>
<polygon points="263.11,120.07 274.39,124.18 263.11,128.28 251.84,124.18" fill="#0e4429"/>
<polygon points="251.84,138.18 251.84,124.18 263.11,128.28 263.11,142.28" fill="#0c3b24"/>
<polygon points="263.11,142.28 263.11,128.28 274.39,124.18 274.39,138.18" fill="#0a321e"/>
<polygon points="289.43,120.07 300.70,124.18 289.43,128.28 278.15,124.18" fill="#0e4429"/>
<polygon points="278.15,138.18 278.15,124.18 289.43,128.28 289.43,142.28" fill="#0c3b24"/>
<polygon points="289.43,142.28 289.43,128.28 300.70,124.18 300.70,138.18" fill="#0a321e"/>
<polygon points="315.74,123.07 327.01,127.18 315.74,131.28 304.46,127.18" fill="#0e4429"/>
<polygon points="304.46,138.18 304.46,127.18 315.74,131.28 315.74,142.28" fill="#0c3b24"/>
<polygon points="315.74,142.28 315.74,131.28 327.01,127.18 327.01,138.18" fill="#0a321e"/>
<polygon points="210.49,116.07 221.77,120.18 210.49,124.28 199.21,120.18" fill="#006d32"/>
<polygon points="199.21,138.18 199.21,120.18 210.49,124.28 210.49,142.28" fill="#005f2c"/>
<polygon points="210.49,142.28 210.49,124.28 221.77,120.18 221.77,138.18" fill="#005025"/>
<polygon points="236.80,116.07 248.08,120.18 236.80,124.28 225.53,120.18" fill="#26a641"/>
<polygon points="225.53,138.18 225.53,120.18 236.80,124.28 236.80,142.28" fill="#219239"/>
<polygon points="236.80,142.28 236.80,124.28 248.08,120.18 248.08,138.18" fill="#1c7a30"/>
<polygon points="249.96,138.86 261.23,142.96 249.96,147.07 238.68,142.96" fill="#161b22"/>
<polygon points="302.58,138.86 313.86,142.96 302.58,147.07 291.30,142.96" fill="#161b22"/>
<polygon points="328.89,138.86 340.17,142.96 328.89,147.07 317.62,142.96" fill="#161b22"/>
<polygon points="381.52,138.86 392.79,142.96 381.52,147.07 370.24,142.96" fill="#161b22"/>
<polygon points="276.27,122.86 287.55,126.96 276.27,131.07 264.99,126.96" fill="#0e4429"/>
<polygon points="264.99,142.96 264.99,126.96 276.27,131.07 276.27,147.07" fill="#0c3b24"/>
<polygon points="276.27,147.07 276.27,131.07 287.55,126.96 287.55,142.96" fill="#0a321e"/>
<polygon points="355.20,127.86 366.48,131.96 355.20,136.07 343.93,131.96" fill="#0e4429"/>
<polygon points="343.93,142.96 343.93,131.96 355.20,136.07 355.20,147.07" fill="#0c3b24"/>
<polygon points="355.20,147.07 355.20,136.07 366.48,131.96 366.48,142.96" fill="#0a321e"/>
<polygon points="223.65,120.86 234.92,124.96 223.65,129.07 212.37,124.96" fill="#006d32"/>
<polygon points="212.37,142.96 212.37,124.96 223.65,129.07 223.65,147.07" fill="#005f2c"/>
<polygon points="223.65,147.07 223.65,129.07 234.92,124.96 234.92,142.96" fill="#005025"/>
<polygon points="236.80,143.65 248.08,147.75 236.80,151.86 225.53,147.75" fill="#161b22"/>
<polygon points="289.43,143.65 300.70,147.75 289.43,151.86 278.15,147.75" fill="#161b22"/>
<polygon points="315.74,143.65 327.01,147.75 315.74,151.86 304.46,147.75" fill="#161b22"/>
<polygon points="342.05,143.65 353.32,147.75 342.05,151.86 330.77,147.75" fill="#161b22"/>
<polygon points="368.36,143.65 379.64,147.75 368.36,151.86 357.08,147.75" fill="#161b22"/>
<polygon points="394.67,143.65 405.95,147.75 394.67,151.86 383.39,147.75" fill="#161b22"/>
<polygon points="263.11,132.65 274.39,136.75 263.11,140.86 251.84,136.75" fill="#0e4429"/>
<polygon points="251.84,147.75 251.84,136.75 263.11,140.86 263.11,151.86" fill="#0c3b24"/>
<polygon points="263.11,151.86 263.11,140.86 274.39,136.75 274.39,147.75" fill="#0a321e"/>
<polygon points="276.27,148.44 287.55,152.54 276.27,156.65 264.99,152.54" fill="#161b22"/>
<polygon points="302.58,148.44 313.86,152.54 302.58,156.65 291.30,152.54" fill="#161b22"/>
<polygon points="328.89,148.44 340.17,152.54 328.89,156.65 317.62,152.54" fill="#161b22"/>
<polygon points="355.20,148.44 366.48,152.54 355.20,156.65 343.93,152.54" fill="#161b22"/>
<polygon points="381.52,148.44 392.79,152.54 381.52,156.65 370.24,152.54" fill="#161b22"/>
<polygon points="407.83,148.44 419.10,152.54 407.83,156.65 396.55,152.54" fill="#161b22"/>
<polygon points="249.96,137.44 261.23,141.54 249.96,145.65 238.68,141.54" fill="#0e4429"/>
<polygon points="238.68,152.54 238.68,141.54 249.96,145.65 249.96,156.65" fill="#0c3b24"/>
<polygon points="249.96,156.65 249.96,145.65 261.23,141.54 261.23,152.54" fill="#0a321e"/>
<polygon points="263.11,153.23 274.39,157.33 263.11,161.43 251.84,157.33" fill="#161b22"/>
<polygon points="289.43,153.23 300.70,157.33 289.43,161.43 278.15,157.33" fill="#161b22"/>
<polygon points="315.74,153.23 327.01,157.33 315.74,161.43 304.46,157.33" fill="#161b22"/>
<polygon points="342.05,153.23 353.32,157.33 342.05,161.43 330.77,157.33" fill="#161b22"/>
<polygon points="368.36,153.23 379.64,157.33 368.36,161.43 357.08,157.33" fill="#161b22"/>
<polygon points="394.67,153.23 405.95,157.33 394.67,161.43 383.39,157.33" fill="#161b22"/>
<polygon points="420.98,153.23 432.26,157.33 420.98,161.43 409.71,157.33" fill="#161b22"/>
<polygon points="276.27,158.01 287.55,162.12 276.27,166.22 264.99,162.12" fill="#161b22"/>
<polygon points="302.58,158.01 313.86,162.12 302.58,166.22 291.30,162.12" fill="#161b22"/>
<polygon points="328.89,158.01 340.17,162.12 328.89,166.22 317.62,162.12" fill="#161b22"/>
<polygon points="355.20,158.01 366.48,162.12 355.20,166.22 343.93,162.12" fill="#161b22"/>
<polygon points="381.52,158.01 392.79,162.12 381.52,166.22 370.24,162.12" fill="#161b22"/>
<polygon points="434.14,147.01 445.41,151.12 434.14,155.22 422.86,151.12" fill="#0e4429"/>
<polygon points="422.86,162.12 422.86,151.12 434.14,155.22 434.14,166.22" fill="#0c3b24"/>
<polygon points="434.14,166.22 434.14,155.22 445.41,151.12 445.41,162.12" fill="#0a321e"/>
<polygon points="407.83,140.01 419.10,144.12 407.83,148.22 396.55,144.12" fill="#006d32"/>
<polygon points="396.55,162.12 396.55,144.12 407.83,148.22 407.83,166.22" fill="#005f2c"/>
<polygon points="407.83,166.22 407.83,148.22 419.10,144.12 419.10,162.12" fill="#005025"/>
<polygon points="289.43,162.80 300.70,166.91 289.43,171.01 278.15,166.91" fill="#161b22"/>
<polygon points="315.74,162.80 327.01,166.91 315.74,171.01 304.46,166.91" fill="#161b22"/>
<polygon points="342.05,162.80 353.32,166.91 342.05,171.01 330.77,166.91" fill="#161b22"/>
<polygon points="368.36,162.80 379.64,166.91 368.36,171.01 357.08,166.91" fill="#161b22"/>
<polygon points="394.67,162.80 405.95,166.91 394.67,171.01 383.39,166.91" fill="#161b22"/>
<polygon points="420.98,162.80 432.26,166.91 420.98,171.01 409.71,166.91" fill="#161b22"/>
<polygon points="447.29,146.80 458.57,150.91 447.29,155.01 436.02,150.91" fill="#0e4429"/>
<polygon points="436.02,166.91 436.02,150.91 447.29,155.01 447.29,171.01" fill="#0c3b24"/>
<polygon points="447.29,171.01 447.29,155.01 458.57,150.91 458.57,166.91" fill="#0a321e"/>
<polygon points="302.58,167.59 313.86,171.69 302.58,175.80 291.30,171.69" fill="#161b22"/>
<polygon points="328.89,167.59 340.17,171.69 328.89,175.80 317.62,171.69" fill="#161b22"/>
<polygon points="381.52,167.59 392.79,171.69 381.52,175.80 370.24,171.69" fill="#161b22"/>
<polygon points="407.83,167.59 419.10,171.69 407.83,175.80 396.55,171.69" fill="#161b22"/>
<polygon points="355.20,151.59 366.48,155.69 355.20,159.80 343.93,155.69" fill="#0e4429"/>
<polygon points="343.93,171.69 343.93,155.69 355.20,159.80 355.20,175.80" fill="#0c3b24"/>
<polygon points="355.20,175.80 355.20,159.80 366.48,155.69 366.48,171.69" fill="#0a321e"/>
<polygon points="434.14,152.59 445.41,156.69 434.14,160.80 422.86,156.69" fill="#0e4429"/>
<polygon points="422.86,171.69 422.86,156.69 434.14,160.80 434.14,175.80" fill="#0c3b24"/>
<polygon points="434.14,175.80 434.14,160.80 445.41,156.69 445.41,171.69" fill="#0a321e"/>
<polygon points="460.45,154.59 471.73,158.69 460.45,162.80 449.17,158.69" fill="#0e4429"/>
<polygon points="449.17,171.69 449.17,158.69 460.45,162.80 460.45,175.80" fill="#0c3b24"/>
<polygon points="460.45,175.80 460.45,162.80 471.73,158.69 471.73,171.69" fill="#0a321e"/>
<polygon points="315.74,172.38 327.01,176.48 315.74,180.59 304.46,176.48" fill="#161b22"/>
<polygon points="368.36,172.38 379.64,176.48 368.36,180.59 357.08,176.48" fill="#161b22"/>
<polygon points="342.05,158.38 353.32,162.48 342.05,166.59 330.77,162.48" fill="#0e4429"/>
<polygon points="330.77,176.48 330.77,162.48 342.05,166.59 342.05,180.59" fill="#0c3b24"/>
<polygon points="342.05,180.59 342.05,166.59 353.32,162.48 353.32,176.48" fill="#0a321e"/>
<polygon points="420.98,156.38 432.26,160.48 420.98,164.59 409.71,160.48" fill="#0e4429"/>
<polygon points="409.71,176.48 409.71,160.48 420.98,164.59 420.98,180.59" fill="#0c3b24"/>
<polygon points="420.98,180.59 420.98,164.59 432.26,160.48 432.26,176.48" fill="#0a321e"/>
<polygon points="394.67,154.38 405.95,158.48 394.67,162.59 383.39,158.48" fill="#006d32"/>
<polygon points="383.39,176.48 383.39,158.48 394.67,162.59 394.67,180.59" fill="#005f2c"/>
<polygon points="394.67,180.59 394.67,162.59 405.95,158.48 405.95,176.48" fill="#005025"/>
<polygon points="447.29,154.38 458.57,158.48 447.29,162.59 436.02,158.48" fill="#006d32"/>
<polygon points="436.02,176.48 436.02,158.48 447.29,162.59 447.29,180.59" fill="#005f2c"/>
<polygon points="447.29,180.59 447.29,162.59 458.57,158.48 458.57,176.48" fill="#005025"/>
<polygon points="473.61,154.38 484.88,158.48 473.61,162.59 462.33,158.48" fill="#26a641"/>
<polygon points="462.33,176.48 462.33,158.48 473.61,162.59 473.61,180.59" fill="#219239"/>
<polygon points="473.61,180.59 473.61,162.59 484.88,158.48 484.88,176.48" fill="#1c7a30"/>
<polygon points="328.89,177.17 340.17,181.27 328.89,185.37 317.62,181.27" fill="#161b22"/>
<polygon points="355.20,177.17 366.48,181.27 355.20,185.37 343.93,181.27" fill="#161b22"/>
<polygon points="486.76,177.17 498.04,181.27 486.76,185.37 475.48,181.27" fill="#161b22"/>
<polygon points="381.52,169.17 392.79,173.27 381.52,177.37 370.24,173.27" fill="#0e4429"/>
<polygon points="370.24,181.27 370.24,173.27 381.52,177.37 381.52,185.37" fill="#0c3b24"/>
<polygon points="381.52,185.37 381.52,177.37 392.79,173.27 392.79,181.27" fill="#0a321e"/>
<polygon points="407.83,164.17 419.10,168.27 407.83,172.37 396.55,168.27" fill="#0e4429"/>
<polygon points="396.55,181.27 396.55,168.27 407.83,172.37 407.83,185.37" fill="#0c3b24"/>
<polygon points="407.83,185.37 407.83,172.37 419.10,168.27 419.10,181.27" fill="#0a321e"/>
<polygon points="434.14,159.17 445.41,163.27 434.14,167.37 422.86,163.27" fill="#006d32"/>
<polygon points="422.86,181.27 422.86,163.27 434.14,167.37 434.14,185.37" fill="#005f2c"/>
<polygon points="434.14,185.37 434.14,167.37 445.41,163.27 445.41,181.27" fill="#005025"/>
<polygon points="460.45,159.17 471.73,163.27 460.45,167.37 449.17,163.27" fill="#26a641"/>
<polygon points="449.17,181.27 449.17,163.27 460.45,167.37 460.45,185.37" fill="#219239"/>
<polygon points="460.45,185.37 460.45,167.37 471.73,163.27 471.73,181.27" fill="#1c7a30"/>
<polygon points="473.61,181.95 484.88,186.06 473.61,190.16 462.33,186.06" fill="#161b22"/>
<polygon points="499.92,181.95 511.19,186.06 499.92,190.16 488.64,186.06" fill="#161b22"/>
<polygon points="368.36,168.95 379.64,173.06 368.36,177.16 357.08,173.06" fill="#0e4429"/>
<polygon points="357.08,186.06 357.08,173.06 368.36,177.16 368.36,190.16" fill="#0c3b24"/>
<polygon points="368.36,190.16 368.36,177.16 379.64,173.06 379.64,186.06" fill="#0a321e"/>
<polygon points="342.05,163.95 353.32,168.06 342.05,172.16 330.77,168.06" fill="#006d32"/>
<polygon points="330.77,186.06 330.77,168.06 342.05,172.16 342.05,190.16" fill="#005f2c"/>
<polygon points="342.05,190.16 342.05,172.16 353.32,168.06 353.32,186.06" fill="#005025"/>
<polygon points="394.67,163.95 405.95,168.06 394.67,172.16 383.39,168.06" fill="#006d32"/>
<polygon points="383.39,186.06 383.39,168.06 394.67,172.16 394.67,190.16" fill="#005f2c"/>
<polygon points="394.67,190.16 394.67,172.16 405.95,168.06 405.95,186.06" fill="#005025"/>
<polygon points="420.98,163.95 432.26,168.06 420.98,172.16 409.71,168.06" fill="#006d32"/>
<polygon points="409.71,186.06 409.71,168.06 420.98,172.16 420.98,190.16" fill="#005f2c"/>
<polygon points="420.98,190.16 420.98,172.16 432.26,168.06 432.26,186.06" fill="#005025"/>
<polygon points="447.29,163.95 458.57,168.06 447.29,172.16 436.02,168.06" fill="#39d353"/>
<polygon points="436.02,186.06 436.02,168.06 447.29,172.16 447.29,190.16" fill="#32b949"/>
<polygon points="447.29,190.16 447.29,172.16 458.57,168.06 458.57,186.06" fill="#2a9c3d"/>
<polygon points="434.14,186.74 445.41,190.85 434.14,194.95 422.86,190.85" fill="#161b22"/>
<polygon points="460.45,186.74 471.73,190.85 460.45,194.95 449.17,190.85" fill="#161b22"/>
<polygon points="486.76,186.74 498.04,190.85 486.76,194.95 475.48,190.85" fill="#161b22"/>
<polygon points="513.07,186.74 524.35,190.85 513.07,194.95 501.80,190.85" fill="#161b22"/>
<polygon points="355.20,171.74 366.48,175.85 355.20,179.95 343.93,175.85" fill="#0e4429"/>
<polygon points="343.93,190.85 343.93,175.85 355.20,179.95 355.20,194.95" fill="#0c3b24"/>
<polygon points="355.20,194.95 355.20,179.95 366.48,175.85 366.48,190.85" fill="#0a321e"/>
<polygon points="407.83,168.74 419.10,172.85 407.83,176.95 396.55,172.85" fill="#006d32"/>
<polygon points="396.55,190.85 396.55,172.85 407.83,176.95 407.83,194.95" fill="#005f2c"/>
<polygon points="407.83,194.95 407.83,176.95 419.10,172.85 419.10,190.85" fill="#005025"/>
<polygon points="381.52,168.74 392.79,172.85 381.52,176.95 370.24,172.85" fill="#26a641"/>
<polygon points="370.24,190.85 370.24,172.85 381.52,176.95 381.52,194.95" fill="#219239"/>
<polygon points="381.52,194.95 381.52,176.95 392.79,172.85 392.79,190.85" fill="#1c7a30"/>
<polygon points="420.98,191.53 432.26,195.64 420.98,199.74 409.71,195.64" fill="#161b22"/>
<polygon points="447.29,191.53 458.57,195.64 447.29,199.74 436.02,195.64" fill="#161b22"/>
<polygon points="473.61,191.53 484.88,195.64 473.61,199.74 462.33,195.64" fill="#161b22"/>
<polygon points="499.92,191.53 511.19,195.64 499.92,199.74 488.64,195.64" fill="#161b22"/>
<polygon points="526.23,191.53 537.50,195.64 526.23,199.74 514.95,195.64" fill="#161b22"/>
<polygon points="394.67,178.53 405.95,182.64 394.67,186.74 383.39,182.64" fill="#0e4429"/>
<polygon points="383.39,195.64 383.39,182.64 394.67,186.74 394.67,199.74" fill="#0c3b24"/>
<polygon points="394.67,199.74 394.67,186.74 405.95,182.64 405.95,195.64" fill="#0a321e"/>
<polygon points="368.36,173.53 379.64,177.64 368.36,181.74 357.08,177.64" fill="#006d32"/>
<polygon points="357.08,195.64 357.08,177.64 368.36,181.74 368.36,199.74" fill="#005f2c"/>
<polygon points="368.36,199.74 368.36,181.74 379.64,177.64 379.64,195.64" fill="#005025"/>
<polygon points="486.76,196.32 498.04,200.42 486.76,204.53 475.48,200.42" fill="#161b22"/>
<polygon points="513.07,196.32 524.35,200.42 513.07,204.53 501.80,200.42" fill="#161b22"/>
<polygon points="539.38,196.32 550.66,200.42 539.38,204.53 528.11,200.42" fill="#161b22"/>
<polygon points="381.52,180.32 392.79,184.42 381.52,188.53 370.24,184.42" fill="#0e4429"/>
<polygon points="370.24,200.42 370.24,184.42 381.52,188.53 381.52,204.53" fill="#0c3b24"/>
<polygon points="381.52,204.53 381.52,188.53 392.79,184.42 392.79,200.42" fill="#0a321e"/>
<polygon points="407.83,188.32 419.10,192.42 407.83,196.53 396.55,192.42" fill="#0e4429"/>
<polygon points="396.55,200.42 396.55,192.42 407.83,196.53 407.83,204.53" fill="#0c3b24"/>
<polygon points="407.83,204.53 407.83,196.53 419.10,192.42 419.10,200.42" fill="#0a321e"/>
<polygon points="434.14,180.32 445.41,184.42 434.14,188.53 422.86,184.42" fill="#0e4429"/>
<polygon points="422.86,200.42 422.86,184.42 434.14,188.53 434.14,204.53" fill="#0c3b24"/>
<polygon points="434.14,204.53 434.14,188.53 445.41,184.42 445.41,200.42" fill="#0a321e"/>
<polygon points="460.45,178.32 471.73,182.42 460.45,186.53 449.17,182.42" fill="#006d32"/>
<polygon points="449.17,200.42 449.17,182.42 460.45,186.53 460.45,204.53" fill="#005f2c"/>
<polygon points="460.45,204.53 460.45,186.53 471.73,182.42 471.73,200.42" fill="#005025"/>
<polygon points="420.98,201.11 432.26,205.21 420.98,209.32 409.71,205.21" fill="#161b22"/>
<polygon points="473.61,201.11 484.88,205.21 473.61,209.32 462.33,205.21" fill="#161b22"/>
<polygon points="499.92,201.11 511.19,205.21 499.92,209.32 488.64,205.21" fill="#161b22"/>
<polygon points="526.23,201.11 537.50,205.21 526.23,209.32 514.95,205.21" fill="#161b22"/>
<polygon points="552.54,201.11 563.82,205.21 552.54,209.32 541.26,205.21" fill="#161b22"/>
<polygon points="394.67,193.11 405.95,197.21 394.67,201.32 383.39,197.21" fill="#0e4429"/>
<polygon points="383.39,205.21 383.39,197.21 394.67,201.32 394.67,209.32" fill="#0c3b24"/>
<polygon points="394.67,209.32 394.67,201.32 405.95,197.21 405.95,205.21" fill="#0a321e"/>
<polygon points="447.29,188.11 458.57,192.21 447.29,196.32 436.02,192.21" fill="#0e4429"/>
<polygon points="436.02,205.21 436.02,192.21 447.29,196.32 447.29,209.32" fill="#0c3b24"/>
<polygon points="447.29,209.32 447.29,196.32 458.57,192.21 458.57,205.21" fill="#0a321e"/>
<polygon points="407.83,205.90 419.10,210.00 407.83,214.10 396.55,210.00" fill="#161b22"/>
<polygon points="460.45,205.90 471.73,210.00 460.45,214.10 449.17,210.00" fill="#161b22"/>
<polygon points="513.07,205.90 524.35,210.00 513.07,214.10 501.80,210.00" fill="#161b22"/>
<polygon points="539.38,205.90 550.66,210.00 539.38,214.10 528.11,210.00" fill="#161b22"/>
<polygon points="565.69,205.90 576.97,210.00 565.69,214.10 554.42,210.00" fill="#161b22"/>
<polygon points="434.14,189.90 445.41,194.00 434.14,198.10 422.86,194.00" fill="#0e4429"/>
<polygon points="422.86,210.00 422.86,194.00 434.14,198.10 434.14,214.10" fill="#0c3b24"/>
<polygon points="434.14,214.10 434.14,198.10 445.41,194.00 445.41,210.00" fill="#0a321e"/>
<polygon points="486.76,197.90 498.04,202.00 486.76,206.10 475.48,202.00" fill="#0e4429"/>
<polygon points="475.48,210.00 475.48,202.00 486.76,206.10 486.76,214.10" fill="#0c3b24"/>
<polygon points="486.76,214.10 486.76,206.10 498.04,202.00 498.04,210.00" fill="#0a321e"/>
<polygon points="420.98,210.68 432.26,214.79 420.98,218.89 409.71,214.79" fill="#161b22"/>
<polygon points="447.29,210.68 458.57,214.79 447.29,218.89 436.02,214.79" fill="#161b22"/>
<polygon points="473.61,210.68 484.88,214.79 473.61,218.89 462.33,214.79" fill="#161b22"/>
<polygon points="526.23,210.68 537.50,214.79 526.23,218.89 514.95,214.79" fill="#161b22"/>
<polygon points="552.54,210.68 563.82,214.79 552.54,218.89 541.26,214.79" fill="#161b22"/>
<polygon points="499.92,193.68 511.19,197.79 499.92,201.89 488.64,197.79" fill="#006d32"/>
<polygon points="488.64,214.79 488.64,197.79 499.92,201.89 499.92,218.89" fill="#005f2c"/>
<polygon points="499.92,218.89 499.92,201.89 511.19,197.79 511.19,214.79" fill="#005025"/>
<polygon points="578.85,192.68 590.13,196.79 578.85,200.89 567.57,196.79" fill="#006d32"/>
<polygon points="567.57,214.79 567.57,196.79 578.85,200.89 578.85,218.89" fill="#005f2c"/>
<polygon points="578.85,218.89 578.85,200.89 590.13,196.79 590.13,214.79" fill="#005025"/>
<polygon points="434.14,215.47 445.41,219.58 434.14,223.68 422.86,219.58" fill="#161b22"/>
<polygon points="460.45,215.47 471.73,219.58 460.45,223.68 449.17,219.58" fill="#161b22"/>
<polygon points="513.07,215.47 524.35,219.58 513.07,223.68 501.80,219.58" fill="#161b22"/>
<polygon points="539.38,215.47 550.66,219.58 539.38,223.68 528.11,219.58" fill="#161b22"/>
<polygon points="565.69,215.47 576.97,219.58 565.69,223.68 554.42,219.58" fill="#161b22"/>
<polygon points="592.01,215.47 603.28,219.58 592.01,223.68 580.73,219.58" fill="#161b22"/>
<polygon points="486.76,197.47 498.04,201.58 486.76,205.68 475.48,201.58" fill="#006d32"/>
<polygon points="475.48,219.58 475.48,201.58 486.76,205.68 486.76,223.68" fill="#005f2c"/>
<polygon points="486.76,223.68 486.76,205.68 498.04,201.58 498.04,219.58" fill="#005025"/>
<polygon points="447.29,220.26 458.57,224.37 447.29,228.47 436.02,224.37" fill="#161b22"/>
<polygon points="526.23,220.26 537.50,224.37 526.23,228.47 514.95,224.37" fill="#161b22"/>
<polygon points="552.54,220.26 563.82,224.37 552.54,228.47 541.26,224.37" fill="#161b22"/>
<polygon points="605.16,220.26 616.44,224.37 605.16,228.47 593.89,224.37" fill="#161b22"/>
<polygon points="499.92,204.26 511.19,208.37 499.92,212.47 488.64,208.37" fill="#0e4429"/>
<polygon points="488.64,224.37 488.64,208.37 499.92,212.47 499.92,228.47" fill="#0c3b24"/>
<polygon points="499.92,228.47 499.92,212.47 511.19,208.37 511.19,224.37" fill="#0a321e"/>
<polygon points="578.85,206.26 590.13,210.37 578.85,214.47 567.57,210.37" fill="#0e4429"/>
<polygon points="567.57,224.37 567.57,210.37 578.85,214.47 578.85,228.47" fill="#0c3b24"/>
<polygon points="578.85,228.47 578.85,214.47 590.13,210.37 590.13,224.37" fill="#0a321e"/>
<polygon points="473.61,202.26 484.88,206.37 473.61,210.47 462.33,206.37" fill="#006d32"/>
<polygon points="462.33,224.37 462.33,206.37 473.61,210.47 473.61,228.47" fill="#005f2c"/>
<polygon points="473.61,228.47 473.61,210.47 484.88,206.37 484.88,224.37" fill="#005025"/>
<polygon points="460.45,225.05 471.73,229.15 460.45,233.26 449.17,229.15" fill="#161b22"/>
<polygon points="513.07,225.05 524.35,229.15 513.07,233.26 501.80,229.15" fill="#161b22"/>
<polygon points="539.38,225.05 550.66,229.15 539.38,233.26 528.11,229.15" fill="#161b22"/>
<polygon points="592.01,225.05 603.28,229.15 592.01,233.26 580.73,229.15" fill="#161b22"/>
<polygon points="486.76,212.05 498.04,216.15 486.76,220.26 475.48,216.15" fill="#0e4429"/>
<polygon points="475.48,229.15 475.48,216.15 486.76,220.26 486.76,233.26" fill="#0c3b24"/>
<polygon points="486.76,233.26 486.76,220.26 498.04,216.15 498.04,229.15" fill="#0a321e"/>
<polygon points="618.32,209.05 629.59,213.15 618.32,217.26 607.04,213.15" fill="#0e4429"/>
<polygon points="607.04,229.15 607.04,213.15 618.32,217.26 618.32,233.26" fill="#0c3b24"/>
<polygon points="618.32,233.26 618.32,217.26 629.59,213.15 629.59,229.15" fill="#0a321e"/>
<polygon points="565.69,208.05 576.97,212.15 565.69,216.26 554.42,212.15" fill="#006d32"/>
<polygon points="554.42,229.15 554.42,212.15 565.69,216.26 565.69,233.26" fill="#005f2c"/>
<polygon points="565.69,233.26 565.69,216.26 576.97,212.15 576.97,229.15" fill="#005025"/>
<polygon points="473.61,229.84 484.88,233.94 473.61,238.05 462.33,233.94" fill="#161b22"/>
<polygon points="526.23,229.84 537.50,233.94 526.23,238.05 514.95,233.94" fill="#161b22"/>
<polygon points="578.85,229.84 590.13,233.94 578.85,238.05 567.57,233.94" fill="#161b22"/>
<polygon points="605.16,229.84 616.44,233.94 605.16,238.05 593.89,233.94" fill="#161b22"/>
<polygon points="631.47,229.84 642.75,233.94 631.47,238.05 620.20,233.94" fill="#161b22"/>
<polygon points="499.92,215.84 511.19,219.94 499.92,224.05 488.64,219.94" fill="#0e4429"/>
<polygon points="488.64,233.94 488.64,219.94 499.92,224.05 499.92,238.05" fill="#0c3b24"/>
<polygon points="499.92,238.05 499.92,224.05 511.19,219.94 511.19,233.94" fill="#0a321e"/>
<polygon points="552.54,211.84 563.82,215.94 552.54,220.05 541.26,215.94" fill="#26a641"/>
<polygon points="541.26,233.94 541.26,215.94 552.54,220.05 552.54,238.05" fill="#219239"/>
<polygon points="552.54,238.05 552.54,220.05 563.82,215.94 563.82,233.94" fill="#1c7a30"/>
<polygon points="565.69,234.63 576.97,238.73 565.69,242.83 554.42,238.73" fill="#161b22"/>
<polygon points="592.01,234.63 603.28,238.73 592.01,242.83 580.73,238.73" fill="#161b22"/>
<polygon points="618.32,234.63 629.59,238.73 618.32,242.83 607.04,238.73" fill="#161b22"/>
<polygon points="644.63,234.63 655.91,238.73 644.63,242.83 633.35,238.73" fill="#161b22"/>
<polygon points="486.76,218.63 498.04,222.73 486.76,226.83 475.48,222.73" fill="#0e4429"/>
<polygon points="475.48,238.73 475.48,222.73 486.76,226.83 486.76,242.83" fill="#0c3b24"/>
<polygon points="486.76,242.83 486.76,226.83 498.04,222.73 498.04,238.73" fill="#0a321e"/>
<polygon points="539.38,219.63 550.66,223.73 539.38,227.83 528.11,223.73" fill="#0e4429"/>
<polygon points="528.11,238.73 528.11,223.73 539.38,227.83 539.38,242.83" fill="#0c3b24"/>
<polygon points="539.38,242.83 539.38,227.83 550.66,223.73 550.66,238.73" fill="#0a321e"/>
<polygon points="513.07,216.63 524.35,220.73 513.07,224.83 501.80,220.73" fill="#39d353"/>
<polygon points="501.80,238.73 501.80,220.73 513.07,224.83 513.07,242.83" fill="#32b949"/>
<polygon points="513.07,242.83 513.07,224.83 524.35,220.73 524.35,238.73" fill="#2a9c3d"/>
<polygon points="526.23,239.41 537.50,243.52 526.23,247.62 514.95,243.52" fill="#161b22"/>
<polygon points="552.54,239.41 563.82,243.52 552.54,247.62 541.26,243.52" fill="#161b22"/>
<polygon points="578.85,239.41 590.13,243.52 578.85,247.62 567.57,243.52" fill="#161b22"/>
<polygon points="605.16,239.41 616.44,243.52 605.16,247.62 593.89,243.52" fill="#161b22"/>
<polygon points="631.47,239.41 642.75,243.52 631.47,247.62 620.20,243.52" fill="#161b22"/>
<polygon points="657.78,239.41 669.06,243.52 657.78,247.62 646.51,243.52" fill="#161b22"/>
<polygon points="499.92,228.41 511.19,232.52 499.92,236.62 488.64,232.52" fill="#0e4429"/>
<polygon points="488.64,243.52 488.64,232.52 499.92,236.62 499.92,247.62" fill="#0c3b24"/>
<polygon points="499.92,247.62 499.92,236.62 511.19,232.52 511.19,243.52" fill="#0a321e"/>
<polygon points="513.07,244.20 524.35,248.31 513.07,252.41 501.80,248.31" fill="#161b22"/>
<polygon points="565.69,244.20 576.97,248.31 565.69,252.41 554.42,248.31" fill="#161b22"/>
<polygon points="592.01,244.20 603.28,248.31 592.01,252.41 580.73,248.31" fill="#161b22"/>
<polygon points="618.32,244.20 629.59,248.31 618.32,252.41 607.04,248.31" fill="#161b22"/>
<polygon points="670.94,244.20 682.22,248.31 670.94,252.41 659.66,248.31" fill="#161b22"/>
<polygon points="539.38,233.20 550.66,237.31 539.38,241.41 528.11,237.31" fill="#0e4429"/>
<polygon points="528.11,248.31 528.11,237.31 539.38,241.41 539.38,252.41" fill="#0c3b24"/>
<polygon points="539.38,252.41 539.38,241.41 550.66,237.31 550.66,248.31" fill="#0a321e"/>
<polygon points="644.63,233.20 655.91,237.31 644.63,241.41 633.35,237.31" fill="#0e4429"/>
<polygon points="633.35,248.31 633.35,237.31 644.63,241.41 644.63,252.41" fill="#0c3b24"/>
<polygon points="644.63,252.41 644.63,241.41 655.91,237.31 655.91,248.31" fill="#0a321e"/>
<polygon points="552.54,248.99 563.82,253.09 552.54,257.20 541.26,253.09" fill="#161b22"/>
<polygon points="578.85,248.99 590.13,253.09 578.85,257.20 567.57,253.09" fill="#161b22"/>
<polygon points="605.16,248.99 616.44,253.09 605.16,257.20 593.89,253.09" fill="#161b22"/>
<polygon points="684.10,248.99 695.37,253.09 684.10,257.20 672.82,253.09" fill="#161b22"/>
<polygon points="657.78,234.99 669.06,239.09 657.78,243.20 646.51,239.09" fill="#0e4429"/>
<polygon points="646.51,253.09 646.51,239.09 657.78,243.20 657.78,257.20" fill="#0c3b24"/>
<polygon points="657.78,257.20 657.78,243.20 669.06,239.09 669.06,253.09" fill="#0a321e"/>
<polygon points="526.23,230.99 537.50,235.09 526.23,239.20 514.95,235.09" fill="#006d32"/>
<polygon points="514.95,253.09 514.95,235.09 526.23,239.20 526.23,257.20" fill="#005f2c"/>
<polygon points="526.23,257.20 526.23,239.20 537.50,235.09 537.50,253.09" fill="#005025"/>
<polygon points="631.47,230.99 642.75,235.09 631.47,239.20 620.20,235.09" fill="#006d32"/>
<polygon points="620.20,253.09 620.20,235.09 631.47,239.20 631.47,257.20" fill="#005f2c"/>
<polygon points="631.47,257.20 631.47,239.20 642.75,235.09 642.75,253.09" fill="#005025"/>
<polygon points="539.38,253.78 550.66,257.88 539.38,261.99 528.11,257.88" fill="#161b22"/>
<polygon points="565.69,253.78 576.97,257.88 565.69,261.99 554.42,257.88" fill="#161b22"/>
<polygon points="618.32,253.78 629.59,257.88 618.32,261.99 607.04,257.88" fill="#161b22"/>
<polygon points="644.63,253.78 655.91,257.88 644.63,261.99 633.35,257.88" fill="#161b22"/>
<polygon points="592.01,242.78 603.28,246.88 592.01,250.99 580.73,246.88" fill="#0e4429"/>
<polygon points="580.73,257.88 580.73,246.88 592.01,250.99 592.01,261.99" fill="#0c3b24"/>
<polygon points="592.01,261.99 592.01,250.99 603.28,246.88 603.28,257.88" fill="#0a321e"/>
<polygon points="670.94,235.78 682.22,239.88 670.94,243.99 659.66,239.88" fill="#26a641"/>
<polygon points="659.66,257.88 659.66,239.88 670.94,243.99 670.94,261.99" fill="#219239"/>
<polygon points="670.94,261.99 670.94,243.99 682.22,239.88 682.22,257.88" fill="#1c7a30"/>
<polygon points="552.54,258.57 563.82,262.67 552.54,266.78 541.26,262.67" fill="#161b22"/>
<polygon points="631.47,258.57 642.75,262.67 631.47,266.78 620.20,262.67" fill="#161b22"/>
<polygon points="657.78,258.57 669.06,262.67 657.78,266.78 646.51,262.67" fill="#161b22"/>
<polygon points="578.85,247.57 590.13,251.67 578.85,255.78 567.57,251.67" fill="#0e4429"/>
<polygon points="567.57,262.67 567.57,251.67 578.85,255.78 578.85,266.78" fill="#0c3b24"/>
<polygon points="578.85,266.78 578.85,255.78 590.13,251.67 590.13,262.67" fill="#0a321e"/>
<polygon points="605.16,250.57 616.44,254.67 605.16,258.78 593.89,254.67" fill="#0e4429"/>
<polygon points="593.89,262.67 593.89,254.67 605.16,258.78 605.16,266.78" fill="#0c3b24"/>
<polygon points="605.16,266.78 605.16,258.78 616.44,254.67 616.44,262.67" fill="#0a321e"/>
<polygon points="565.69,263.36 576.97,267.46 565.69,271.56 554.42,267.46" fill="#161b22"/>
<polygon points="592.01,263.36 603.28,267.46 592.01,271.56 580.73,267.46" fill="#161b22"/>
<polygon points="618.32,263.36 629.59,267.46 618.32,271.56 607.04,267.46" fill="#161b22"/>
<polygon points="644.63,245.36 655.91,249.46 644.63,253.56 633.35,249.46" fill="#006d32"/>
<polygon points="633.35,267.46 633.35,249.46 644.63,253.56 644.63,271.56" fill="#005f2c"/>
<polygon points="644.63,271.56 644.63,253.56 655.91,249.46 655.91,267.46" fill="#005025"/>
<polygon points="605.16,268.14 616.44,272.25 605.16,276.35 593.89,272.25" fill="#161b22"/>
<polygon points="578.85,251.14 590.13,255.25 578.85,259.35 567.57,255.25" fill="#006d32"/>
<polygon points="567.57,272.25 567.57,255.25 578.85,259.35 578.85,276.35" fill="#005f2c"/>
<polygon points="578.85,276.35 578.85,259.35 590.13,255.25 590.13,272.25" fill="#005025"/>
<polygon points="631.47,250.14 642.75,254.25 631.47,258.35 620.20,254.25" fill="#006d32"/>
<polygon points="620.20,272.25 620.20,254.25 631.47,258.35 631.47,276.35" fill="#005f2c"/>
<polygon points="631.47,276.35 631.47,258.35 642.75,254.25 642.75,272.25" fill="#005025"/>
<polygon points="592.01,272.93 603.28,277.04 592.01,281.14 580.73,277.04" fill="#161b22"/>
<text x="697.25" y="14.00" text-anchor="end" font-family='-apple-system, BlinkMacSystemFont, "Segoe UI", Helvetica, Arial, sans-serif' font-size="34" font-weight="700" fill="#39d353">702</text>
<text x="697.25" y="26.00" text-anchor="end" font-family='-apple-system, BlinkMacSystemFont, "Segoe UI", Helvetica, Arial, sans-serif' font-size="10" fill="#7d8590" letter-spacing="0.8">TOTAL CONTRIBUTIONS</text>
<rect x="-92.09" y="199.70" width="12" height="39.60" rx="1" fill="#006d32"/>
<text x="-86.09" y="257.30" text-anchor="middle" font-family='-apple-system, BlinkMacSystemFont, "Segoe UI", Helvetica, Arial, sans-serif' font-size="11" fill="#7d8590">S</text>
<rect x="-76.09" y="185.30" width="12" height="54.00" rx="1" fill="#39d353"/>
<text x="-70.09" y="257.30" text-anchor="middle" font-family='-apple-system, BlinkMacSystemFont, "Segoe UI", Helvetica, Arial, sans-serif' font-size="11" fill="#7d8590">M</text>
<rect x="-60.09" y="205.10" width="12" height="34.20" rx="1" fill="#006d32"/>
<text x="-54.09" y="257.30" text-anchor="middle" font-family='-apple-system, BlinkMacSystemFont, "Segoe UI", Helvetica, Arial, sans-serif' font-size="11" fill="#7d8590">T</text>
<rect x="-44.09" y="189.80" width="12" height="49.50" rx="1" fill="#006d32"/>
<text x="-38.09" y="257.30" text-anchor="middle" font-family='-apple-system, BlinkMacSystemFont, "Segoe UI", Helvetica, Arial, sans-serif' font-size="11" fill="#7d8590">W</text>
<rect x="-28.09" y="193.85" width="12" height="45.45" rx="1" fill="#006d32"/>
<text x="-22.09" y="257.30" text-anchor="middle" font-family='-apple-system, BlinkMacSystemFont, "Segoe UI", Helvetica, Arial, sans-serif' font-size="11" fill="#7d8590">T</text>
<rect x="-12.09" y="189.80" width="12" height="49.50" rx="1" fill="#006d32"/>
<text x="-6.09" y="257.30" text-anchor="middle" font-family='-apple-system, BlinkMacSystemFont, "Segoe UI", Helvetica, Arial, sans-serif' font-size="11" fill="#7d8590">F</text>
<rect x="3.91" y="195.65" width="12" height="43.65" rx="1" fill="#006d32"/>
<text x="9.91" y="257.30" text-anchor="middle" font-family='-apple-system, BlinkMacSystemFont, "Segoe UI", Helvetica, Arial, sans-serif' font-size="11" fill="#7d8590">S</text>
<text x="-92.09" y="277.30" font-family='-apple-system, BlinkMacSystemFont, "Segoe UI", Helvetica, Arial, sans-serif' font-size="12" fill="#7d8590" letter-spacing="0.3">Most active days</text>
<text x="-92.09" y="293.30" font-family='-apple-system, BlinkMacSystemFont, "Segoe UI", Helvetica, Arial, sans-serif' font-size="9" fill="#7d8590">Data pulled daily from GitHub.</text>
<text x="-92.09" y="303.30" font-family='-apple-system, BlinkMacSystemFont, "Segoe UI", Helvetica, Arial, sans-serif' font-size="9" fill="#7d8590">Rolling last-12-month activity.</text>
</svg>