<svg xmlns="http://www.w3.org/2000/svg" viewBox="0 0 432 60" width="432" height="60" role="img" fill="#8A6508"><title>SASTA-KRO</title><style>.w{animation:type 3.2s steps(72) infinite}@keyframes type{0%{clip-path:inset(0 100% 0 0)}72%,100%{clip-path:inset(0)}}.c{opacity:0;animation:move 3.2s steps(72) infinite,blink 0.75s step-end infinite}@keyframes move{0%{transform:translateX(0)}72%,100%{transform:translateX(432px)}}@keyframes blink{0%,50%{opacity:0.8}50.01%,100%{opacity:0}}@media(prefers-reduced-motion:reduce){.w{animation:none}.c{display:none}}</style><g class="w"><rect x="0" y="0" width="42" height="10.1"/><rect x="54" y="0" width="30" height="10.1"/><rect x="96" y="0" width="42" height="10.1"/><rect x="144" y="0" width="48" height="10.1"/><rect x="204" y="0" width="30" height="10.1"/><rect x="282" y="0" width="12" height="10.1"/><rect x="312" y="0" width="12" height="10.1"/><rect x="330" y="0" width="36" height="10.1"/><rect x="384" y="0" width="36" height="10.1"/><rect x="42" y="3.4" width="4.8" height="1.2"/><rect x="42" y="5.4" width="2.4" height="1.2"/><rect x="45.6" y="3.4" width="1.2" height="6.6"/><rect x="43.2" y="5.4" width="1.2" height="4.6"/><rect x="84" y="3.4" width="4.8" height="1.2"/><rect x="84" y="5.4" width="2.4" height="1.2"/><rect x="87.6" y="3.4" width="1.2" height="6.6"/><rect x="85.2" y="5.4" width="1.2" height="4.6"/><rect x="138" y="3.4" width="4.8" height="1.2"/><rect x="138" y="5.4" width="2.4" height="1.2"/><rect x="141.6" y="3.4" width="1.2" height="6.6"/><rect x="139.2" y="5.4" width="1.2" height="4.6"/><rect x="192" y="3.4" width="4.8" height="1.2"/><rect x="192" y="5.4" width="2.4" height="1.2"/><rect x="195.6" y="3.4" width="1.2" height="6.6"/><rect x="193.2" y="5.4" width="1.2" height="4.6"/><rect x="234" y="3.4" width="4.8" height="1.2"/><rect x="234" y="5.4" width="2.4" height="1.2"/><rect x="237.6" y="3.4" width="1.2" height="6.6"/><rect x="235.2" y="5.4" width="1.2" height="4.6"/><rect x="294" y="3.4" width="4.8" height="1.2"/><rect x="294" y="5.4" width="2.4" height="1.2"/><rect x="297.6" y="3.4" width="1.2" height="6.6"/><rect x="295.2" y="5.4" width="1.2" height="4.6"/><rect x="324" y="3.4" width="4.8" height="1.2"/><rect x="324" y="5.4" width="2.4" height="1.2"/><rect x="327.6" y="3.4" width="1.2" height="6.6"/><rect x="325.2" y="5.4" width="1.2" height="4.6"/><rect x="366" y="3.4" width="4.8" height="1.2"/><rect x="366" y="5.4" width="2.4" height="1.2"/><rect x="369.6" y="3.4" width="1.2" height="6.6"/><rect x="367.2" y="5.4" width="1.2" height="4.6"/><rect x="420" y="3.4" width="4.8" height="1.2"/><rect x="420" y="5.4" width="2.4" height="1.2"/><rect x="423.6" y="3.4" width="1.2" height="6.6"/><rect x="421.2" y="5.4" width="1.2" height="4.6"/><rect x="0" y="10" width="12" height="10.1"/><rect x="48" y="10" width="12" height="10.1"/><rect x="78" y="10" width="12" height="10.1"/><rect x="96" y="10" width="12" height="10.1"/><rect x="162" y="10" width="12" height="10.1"/><rect x="198" y="10" width="12" height="10.1"/><rect x="228" y="10" width="12" height="10.1"/><rect x="282" y="10" width="12" height="10.1"/><rect x="306" y="10" width="12" height="10.1"/><rect x="330" y="10" width="12" height="10.1"/><rect x="360" y="10" width="12" height="10.1"/><rect x="378" y="10" width="12" height="10.1"/><rect x="414" y="10" width="12" height="10.1"/><rect x="13.2" y="13.4" width="4.8" height="1.2"/><rect x="15.6" y="15.4" width="2.4" height="1.2"/><rect x="13.2" y="13.4" width="1.2" height="6.6"/><rect x="15.6" y="15.4" width="1.2" height="4.6"/><rect x="18" y="13.4" width="6" height="1.2"/><rect x="18" y="15.4" width="6" height="1.2"/><rect x="24" y="13.4" width="6" height="1.2"/><rect x="24" y="15.4" width="6" height="1.2"/><rect x="30" y="13.4" width="6" height="1.2"/><rect x="30" y="15.4" width="6" height="1.2"/><rect x="36" y="13.4" width="6" height="1.2"/><rect x="36" y="15.4" width="6" height="1.2"/><rect x="42" y="15.4" width="4.8" height="1.2"/><rect x="42" y="13.4" width="2.4" height="1.2"/><rect x="45.6" y="10" width="1.2" height="6.6"/><rect x="43.2" y="10" width="1.2" height="4.6"/><rect x="61.2" y="13.4" width="4.8" height="1.2"/><rect x="63.6" y="15.4" width="2.4" height="1.2"/><rect x="61.2" y="13.4" width="1.2" height="6.6"/><rect x="63.6" y="15.4" width="1.2" height="4.6"/><rect x="66" y="13.4" width="6" height="1.2"/><rect x="66" y="15.4" width="6" height="1.2"/><rect x="72" y="13.4" width="6" height="1.2"/><rect x="72" y="15.4" width="6" height="1.2"/><rect x="90" y="13.4" width="4.8" height="1.2"/><rect x="90" y="15.4" width="2.4" height="1.2"/><rect x="93.6" y="13.4" width="1.2" height="6.6"/><rect x="91.2" y="15.4" width="1.2" height="4.6"/><rect x="109.2" y="13.4" width="4.8" height="1.2"/><rect x="111.6" y="15.4" width="2.4" height="1.2"/><rect x="109.2" y="13.4" width="1.2" height="6.6"/><rect x="111.6" y="15.4" width="1.2" height="4.6"/><rect x="114" y="13.4" width="6" height="1.2"/><rect x="114" y="15.4" width="6" height="1.2"/><rect x="120" y="13.4" width="6" height="1.2"/><rect x="120" y="15.4" width="6" height="1.2"/><rect x="126" y="13.4" width="6" height="1.2"/><rect x="126" y="15.4" width="6" height="1.2"/><rect x="132" y="13.4" width="6" height="1.2"/><rect x="132" y="15.4" width="6" height="1.2"/><rect x="138" y="15.4" width="4.8" height="1.2"/><rect x="138" y="13.4" width="2.4" height="1.2"/><rect x="141.6" y="10" width="1.2" height="6.6"/><rect x="139.2" y="10" width="1.2" height="4.6"/><rect x="145.2" y="15.4" width="4.8" height="1.2"/><rect x="147.6" y="13.4" width="2.4" height="1.2"/><rect x="145.2" y="10" width="1.2" height="6.6"/><rect x="147.6" y="10" width="1.2" height="4.6"/><rect x="150" y="13.4" width="6" height="1.2"/><rect x="150" y="15.4" width="6" height="1.2"/><rect x="156" y="13.4" width="6" height="1.2"/><rect x="156" y="15.4" width="6" height="1.2"/><rect x="175.2" y="13.4" width="4.8" height="1.2"/><rect x="177.6" y="15.4" width="2.4" height="1.2"/><rect x="175.2" y="13.4" width="1.2" height="6.6"/><rect x="177.6" y="15.4" width="1.2" height="4.6"/><rect x="180" y="13.4" width="6" height="1.2"/><rect x="180" y="15.4" width="6" height="1.2"/><rect x="186" y="13.4" width="6" height="1.2"/><rect x="186" y="15.4" width="6" height="1.2"/><rect x="192" y="15.4" width="4.8" height="1.2"/><rect x="192" y="13.4" width="2.4" height="1.2"/><rect x="195.6" y="10" width="1.2" height="6.6"/><rect x="193.2" y="10" width="1.2" height="4.6"/><rect x="211.2" y="13.4" width="4.8" height="1.2"/><rect x="213.6" y="15.4" width="2.4" height="1.2"/><rect x="211.2" y="13.4" width="1.2" height="6.6"/><rect x="213.6" y="15.4" width="1.2" height="4.6"/><rect x="216" y="13.4" width="6" height="1.2"/><rect x="216" y="15.4" width="6" height="1.2"/><rect x="222" y="13.4" width="6" height="1.2"/><rect x="222" y="15.4" width="6" height="1.2"/><rect x="240" y="13.4" width="4.8" height="1.2"/><rect x="240" y="15.4" width="2.4" height="1.2"/><rect x="243.6" y="13.4" width="1.2" height="6.6"/><rect x="241.2" y="15.4" width="1.2" height="4.6"/><rect x="295.2" y="10" width="1.2" height="10"/><rect x="297.6" y="10" width="1.2" height="10"/><rect x="319.2" y="13.4" width="4.8" height="1.2"/><rect x="321.6" y="15.4" width="2.4" height="1.2"/><rect x="319.2" y="13.4" width="1.2" height="6.6"/><rect x="321.6" y="15.4" width="1.2" height="4.6"/><rect x="324" y="15.4" width="4.8" height="1.2"/><rect x="324" y="13.4" width="2.4" height="1.2"/><rect x="327.6" y="10" width="1.2" height="6.6"/><rect x="325.2" y="10" width="1.2" height="4.6"/><rect x="343.2" y="13.4" width="4.8" height="1.2"/><rect x="345.6" y="15.4" width="2.4" height="1.2"/><rect x="343.2" y="13.4" width="1.2" height="6.6"/><rect x="345.6" y="15.4" width="1.2" height="4.6"/><rect x="348" y="13.4" width="6" height="1.2"/><rect x="348" y="15.4" width="6" height="1.2"/><rect x="354" y="13.4" width="6" height="1.2"/><rect x="354" y="15.4" width="6" height="1.2"/><rect x="372" y="13.4" width="4.8" height="1.2"/><rect x="372" y="15.4" width="2.4" height="1.2"/><rect x="375.6" y="13.4" width="1.2" height="6.6"/><rect x="373.2" y="15.4" width="1.2" height="4.6"/><rect x="391.2" y="13.4" width="4.8" height="1.2"/><rect x="393.6" y="15.4" width="2.4" height="1.2"/><rect x="391.2" y="13.4" width="1.2" height="6.6"/><rect x="393.6" y="15.4" width="1.2" height="4.6"/><rect x="396" y="13.4" width="6" height="1.2"/><rect x="396" y="15.4" width="6" height="1.2"/><rect x="402" y="13.4" width="6" height="1.2"/><rect x="402" y="15.4" width="6" height="1.2"/><rect x="408" y="13.4" width="6" height="1.2"/><rect x="408" y="15.4" width="6" height="1.2"/><rect x="426" y="13.4" width="4.8" height="1.2"/><rect x="426" y="15.4" width="2.4" height="1.2"/><rect x="429.6" y="13.4" width="1.2" height="6.6"/><rect x="427.2" y="15.4" width="1.2" height="4.6"/><rect x="0" y="20" width="42" height="10.1"/><rect x="48" y="20" width="42" height="10.1"/><rect x="96" y="20" width="42" height="10.1"/><rect x="162" y="20" width="12" height="10.1"/><rect x="198" y="20" width="42" height="10.1"/><rect x="246" y="20" width="30" height="10.1"/><rect x="282" y="20" width="30" height="10.1"/><rect x="330" y="20" width="36" height="10.1"/><rect x="378" y="20" width="12" height="10.1"/><rect x="414" y="20" width="12" height="10.1"/><rect x="42" y="23.4" width="4.8" height="1.2"/><rect x="42" y="25.4" width="2.4" height="1.2"/><rect x="45.6" y="23.4" width="1.2" height="6.6"/><rect x="43.2" y="25.4" width="1.2" height="4.6"/><rect x="91.2" y="20" width="1.2" height="10"/><rect x="93.6" y="20" width="1.2" height="10"/><rect x="138" y="23.4" width="4.8" height="1.2"/><rect x="138" y="25.4" width="2.4" height="1.2"/><rect x="141.6" y="23.4" width="1.2" height="6.6"/><rect x="139.2" y="25.4" width="1.2" height="4.6"/><rect x="175.2" y="20" width="1.2" height="10"/><rect x="177.6" y="20" width="1.2" height="10"/><rect x="241.2" y="20" width="1.2" height="10"/><rect x="243.6" y="20" width="1.2" height="10"/><rect x="276" y="23.4" width="4.8" height="1.2"/><rect x="276" y="25.4" width="2.4" height="1.2"/><rect x="279.6" y="23.4" width="1.2" height="6.6"/><rect x="277.2" y="25.4" width="1.2" height="4.6"/><rect x="313.2" y="23.4" width="4.8" height="1.2"/><rect x="315.6" y="25.4" width="2.4" height="1.2"/><rect x="313.2" y="23.4" width="1.2" height="6.6"/><rect x="315.6" y="25.4" width="1.2" height="4.6"/><rect x="318" y="25.4" width="4.8" height="1.2"/><rect x="318" y="23.4" width="2.4" height="1.2"/><rect x="321.6" y="20" width="1.2" height="6.6"/><rect x="319.2" y="20" width="1.2" height="4.6"/><rect x="367.2" y="23.4" width="4.8" height="1.2"/><rect x="369.6" y="25.4" width="2.4" height="1.2"/><rect x="367.2" y="23.4" width="1.2" height="6.6"/><rect x="369.6" y="25.4" width="1.2" height="4.6"/><rect x="372" y="25.4" width="4.8" height="1.2"/><rect x="372" y="23.4" width="2.4" height="1.2"/><rect x="375.6" y="20" width="1.2" height="6.6"/><rect x="373.2" y="20" width="1.2" height="4.6"/><rect x="391.2" y="20" width="1.2" height="10"/><rect x="393.6" y="20" width="1.2" height="10"/><rect x="427.2" y="20" width="1.2" height="10"/><rect x="429.6" y="20" width="1.2" height="10"/><rect x="30" y="30" width="12" height="10.1"/><rect x="48" y="30" width="12" height="10.1"/><rect x="78" y="30" width="12" height="10.1"/><rect x="126" y="30" width="12" height="10.1"/><rect x="162" y="30" width="12" height="10.1"/><rect x="198" y="30" width="12" height="10.1"/><rect x="228" y="30" width="12" height="10.1"/><rect x="282" y="30" width="12" height="10.1"/><rect x="306" y="30" width="12" height="10.1"/><rect x="330" y="30" width="12" height="10.1"/><rect x="360" y="30" width="12" height="10.1"/><rect x="378" y="30" width="12" height="10.1"/><rect x="414" y="30" width="12" height="10.1"/><rect x="1.2" y="35.4" width="4.8" height="1.2"/><rect x="3.6" y="33.4" width="2.4" height="1.2"/><rect x="1.2" y="30" width="1.2" height="6.6"/><rect x="3.6" y="30" width="1.2" height="4.6"/><rect x="6" y="33.4" width="6" height="1.2"/><rect x="6" y="35.4" width="6" height="1.2"/><rect x="12" y="33.4" width="6" height="1.2"/><rect x="12" y="35.4" width="6" height="1.2"/><rect x="18" y="33.4" width="6" height="1.2"/><rect x="18" y="35.4" width="6" height="1.2"/><rect x="24" y="33.4" width="6" height="1.2"/><rect x="24" y="35.4" width="6" height="1.2"/><rect x="43.2" y="30" width="1.2" height="10"/><rect x="45.6" y="30" width="1.2" height="10"/><rect x="61.2" y="33.4" width="4.8" height="1.2"/><rect x="63.6" y="35.4" width="2.4" height="1.2"/><rect x="61.2" y="33.4" width="1.2" height="6.6"/><rect x="63.6" y="35.4" width="1.2" height="4.6"/><rect x="66" y="33.4" width="6" height="1.2"/><rect x="66" y="35.4" width="6" height="1.2"/><rect x="72" y="33.4" width="6" height="1.2"/><rect x="72" y="35.4" width="6" height="1.2"/><rect x="91.2" y="30" width="1.2" height="10"/><rect x="93.6" y="30" width="1.2" height="10"/><rect x="97.2" y="35.4" width="4.8" height="1.2"/><rect x="99.6" y="33.4" width="2.4" height="1.2"/><rect x="97.2" y="30" width="1.2" height="6.6"/><rect x="99.6" y="30" width="1.2" height="4.6"/><rect x="102" y="33.4" width="6" height="1.2"/><rect x="102" y="35.4" width="6" height="1.2"/><rect x="108" y="33.4" width="6" height="1.2"/><rect x="108" y="35.4" width="6" height="1.2"/><rect x="114" y="33.4" width="6" height="1.2"/><rect x="114" y="35.4" width="6" height="1.2"/><rect x="120" y="33.4" width="6" height="1.2"/><rect x="120" y="35.4" width="6" height="1.2"/><rect x="139.2" y="30" width="1.2" height="10"/><rect x="141.6" y="30" width="1.2" height="10"/><rect x="175.2" y="30" width="1.2" height="10"/><rect x="177.6" y="30" width="1.2" height="10"/><rect x="211.2" y="33.4" width="4.8" height="1.2"/><rect x="213.6" y="35.4" width="2.4" height="1.2"/><rect x="211.2" y="33.4" width="1.2" height="6.6"/><rect x="213.6" y="35.4" width="1.2" height="4.6"/><rect x="216" y="33.4" width="6" height="1.2"/><rect x="216" y="35.4" width="6" height="1.2"/><rect x="222" y="33.4" width="6" height="1.2"/><rect x="222" y="35.4" width="6" height="1.2"/><rect x="241.2" y="30" width="1.2" height="10"/><rect x="243.6" y="30" width="1.2" height="10"/><rect x="247.2" y="35.4" width="4.8" height="1.2"/><rect x="249.6" y="33.4" width="2.4" height="1.2"/><rect x="247.2" y="30" width="1.2" height="6.6"/><rect x="249.6" y="30" width="1.2" height="4.6"/><rect x="252" y="33.4" width="6" height="1.2"/><rect x="252" y="35.4" width="6" height="1.2"/><rect x="258" y="33.4" width="6" height="1.2"/><rect x="258" y="35.4" width="6" height="1.2"/><rect x="264" y="33.4" width="6" height="1.2"/><rect x="264" y="35.4" width="6" height="1.2"/><rect x="270" y="33.4" width="6" height="1.2"/><rect x="270" y="35.4" width="6" height="1.2"/><rect x="276" y="35.4" width="4.8" height="1.2"/><rect x="276" y="33.4" width="2.4" height="1.2"/><rect x="279.6" y="30" width="1.2" height="6.6"/><rect x="277.2" y="30" width="1.2" height="4.6"/><rect x="295.2" y="33.4" width="4.8" height="1.2"/><rect x="297.6" y="35.4" width="2.4" height="1.2"/><rect x="295.2" y="33.4" width="1.2" height="6.6"/><rect x="297.6" y="35.4" width="1.2" height="4.6"/><rect x="300" y="33.4" width="6" height="1.2"/><rect x="300" y="35.4" width="6" height="1.2"/><rect x="318" y="33.4" width="4.8" height="1.2"/><rect x="318" y="35.4" width="2.4" height="1.2"/><rect x="321.6" y="33.4" width="1.2" height="6.6"/><rect x="319.2" y="35.4" width="1.2" height="4.6"/><rect x="343.2" y="33.4" width="4.8" height="1.2"/><rect x="345.6" y="35.4" width="2.4" height="1.2"/><rect x="343.2" y="33.4" width="1.2" height="6.6"/><rect x="345.6" y="35.4" width="1.2" height="4.6"/><rect x="348" y="33.4" width="6" height="1.2"/><rect x="348" y="35.4" width="6" height="1.2"/><rect x="354" y="33.4" width="6" height="1.2"/><rect x="354" y="35.4" width="6" height="1.2"/><rect x="372" y="33.4" width="4.8" height="1.2"/><rect x="372" y="35.4" width="2.4" height="1.2"/><rect x="375.6" y="33.4" width="1.2" height="6.6"/><rect x="373.2" y="35.4" width="1.2" height="4.6"/><rect x="391.2" y="30" width="1.2" height="10"/><rect x="393.6" y="30" width="1.2" height="10"/><rect x="427.2" y="30" width="1.2" height="10"/><rect x="429.6" y="30" width="1.2" height="10"/><rect x="0" y="40" width="42" height="10.1"/><rect x="48" y="40" width="12" height="10.1"/><rect x="78" y="40" width="12" height="10.1"/><rect x="96" y="40" width="42" height="10.1"/><rect x="162" y="40" width="12" height="10.1"/><rect x="198" y="40" width="12" height="10.1"/><rect x="228" y="40" width="12" height="10.1"/><rect x="282" y="40" width="12" height="10.1"/><rect x="312" y="40" width="12" height="10.1"/><rect x="330" y="40" width="12" height="10.1"/><rect x="360" y="40" width="12" height="10.1"/><rect x="384" y="40" width="36" height="10.1"/><rect x="43.2" y="40" width="1.2" height="10"/><rect x="45.6" y="40" width="1.2" height="10"/><rect x="61.2" y="40" width="1.2" height="10"/><rect x="63.6" y="40" width="1.2" height="10"/><rect x="91.2" y="40" width="1.2" height="10"/><rect x="93.6" y="40" width="1.2" height="10"/><rect x="139.2" y="40" width="1.2" height="10"/><rect x="141.6" y="40" width="1.2" height="10"/><rect x="175.2" y="40" width="1.2" height="10"/><rect x="177.6" y="40" width="1.2" height="10"/><rect x="211.2" y="40" width="1.2" height="10"/><rect x="213.6" y="40" width="1.2" height="10"/><rect x="241.2" y="40" width="1.2" height="10"/><rect x="243.6" y="40" width="1.2" height="10"/><rect x="295.2" y="40" width="1.2" height="10"/><rect x="297.6" y="40" width="1.2" height="10"/><rect x="324" y="43.4" width="4.8" height="1.2"/><rect x="324" y="45.4" width="2.4" height="1.2"/><rect x="327.6" y="43.4" width="1.2" height="6.6"/><rect x="325.2" y="45.4" width="1.2" height="4.6"/><rect x="343.2" y="40" width="1.2" height="10"/><rect x="345.6" y="40" width="1.2" height="10"/><rect x="373.2" y="40" width="1.2" height="10"/><rect x="375.6" y="40" width="1.2" height="10"/><rect x="379.2" y="45.4" width="4.8" height="1.2"/><rect x="381.6" y="43.4" width="2.4" height="1.2"/><rect x="379.2" y="40" width="1.2" height="6.6"/><rect x="381.6" y="40" width="1.2" height="4.6"/><rect x="421.2" y="43.4" width="4.8" height="1.2"/><rect x="423.6" y="45.4" width="2.4" height="1.2"/><rect x="421.2" y="43.4" width="1.2" height="6.6"/><rect x="423.6" y="45.4" width="1.2" height="4.6"/><rect x="426" y="45.4" width="4.8" height="1.2"/><rect x="426" y="43.4" width="2.4" height="1.2"/><rect x="429.6" y="40" width="1.2" height="6.6"/><rect x="427.2" y="40" width="1.2" height="4.6"/><rect x="1.2" y="55.4" width="4.8" height="1.2"/><rect x="3.6" y="53.4" width="2.4" height="1.2"/><rect x="1.2" y="50" width="1.2" height="6.6"/><rect x="3.6" y="50" width="1.2" height="4.6"/><rect x="6" y="53.4" width="6" height="1.2"/><rect x="6" y="55.4" width="6" height="1.2"/><rect x="12" y="53.4" width="6" height="1.2"/><rect x="12" y="55.4" width="6" height="1.2"/><rect x="18" y="53.4" width="6" height="1.2"/><rect x="18" y="55.4" width="6" height="1.2"/><rect x="24" y="53.4" width="6" height="1.2"/><rect x="24" y="55.4" width="6" height="1.2"/><rect x="30" y="53.4" width="6" height="1.2"/><rect x="30" y="55.4" width="6" height="1.2"/><rect x="36" y="53.4" width="6" height="1.2"/><rect x="36" y="55.4" width="6" height="1.2"/><rect x="42" y="55.4" width="4.8" height="1.2"/><rect x="42" y="53.4" width="2.4" height="1.2"/><rect x="45.6" y="50" width="1.2" height="6.6"/><rect x="43.2" y="50" width="1.2" height="4.6"/><rect x="49.2" y="55.4" width="4.8" height="1.2"/><rect x="51.6" y="53.4" width="2.4" height="1.2"/><rect x="49.2" y="50" width="1.2" height="6.6"/><rect x="51.6" y="50" width="1.2" height="4.6"/><rect x="54" y="53.4" width="6" height="1.2"/><rect x="54" y="55.4" width="6" height="1.2"/><rect x="60" y="55.4" width="4.8" height="1.2"/><rect x="60" y="53.4" width="2.4" height="1.2"/><rect x="63.6" y="50" width="1.2" height="6.6"/><rect x="61.2" y="50" width="1.2" height="4.6"/><rect x="79.2" y="55.4" width="4.8" height="1.2"/><rect x="81.6" y="53.4" width="2.4" height="1.2"/><rect x="79.2" y="50" width="1.2" height="6.6"/><rect x="81.6" y="50" width="1.2" height="4.6"/><rect x="84" y="53.4" width="6" height="1.2"/><rect x="84" y="55.4" width="6" height="1.2"/><rect x="90" y="55.4" width="4.8" height="1.2"/><rect x="90" y="53.4" width="2.4" height="1.2"/><rect x="93.6" y="50" width="1.2" height="6.6"/><rect x="91.2" y="50" width="1.2" height="4.6"/><rect x="97.2" y="55.4" width="4.8" height="1.2"/><rect x="99.6" y="53.4" width="2.4" height="1.2"/><rect x="97.2" y="50" width="1.2" height="6.6"/><rect x="99.6" y="50" width="1.2" height="4.6"/><rect x="102" y="53.4" width="6" height="1.2"/><rect x="102" y="55.4" width="6" height="1.2"/><rect x="108" y="53.4" width="6" height="1.2"/><rect x="108" y="55.4" width="6" height="1.2"/><rect x="114" y="53.4" width="6" height="1.2"/><rect x="114" y="55.4" width="6" height="1.2"/><rect x="120" y="53.4" width="6" height="1.2"/><rect x="120" y="55.4" width="6" height="1.2"/><rect x="126" y="53.4" width="6" height="1.2"/><rect x="126" y="55.4" width="6" height="1.2"/><rect x="132" y="53.4" width="6" height="1.2"/><rect x="132" y="55.4" width="6" height="1.2"/><rect x="138" y="55.4" width="4.8" height="1.2"/><rect x="138" y="53.4" width="2.4" height="1.2"/><rect x="141.6" y="50" width="1.2" height="6.6"/><rect x="139.2" y="50" width="1.2" height="4.6"/><rect x="163.2" y="55.4" width="4.8" height="1.2"/><rect x="165.6" y="53.4" width="2.4" height="1.2"/><rect x="163.2" y="50" width="1.2" height="6.6"/><rect x="165.6" y="50" width="1.2" height="4.6"/><rect x="168" y="53.4" width="6" height="1.2"/><rect x="168" y="55.4" width="6" height="1.2"/><rect x="174" y="55.4" width="4.8" height="1.2"/><rect x="174" y="53.4" width="2.4" height="1.2"/><rect x="177.6" y="50" width="1.2" height="6.6"/><rect x="175.2" y="50" width="1.2" height="4.6"/><rect x="199.2" y="55.4" width="4.8" height="1.2"/><rect x="201.6" y="53.4" width="2.4" height="1.2"/><rect x="199.2" y="50" width="1.2" height="6.6"/><rect x="201.6" y="50" width="1.2" height="4.6"/><rect x="204" y="53.4" width="6" height="1.2"/><rect x="204" y="55.4" width="6" height="1.2"/><rect x="210" y="55.4" width="4.8" height="1.2"/><rect x="210" y="53.4" width="2.4" height="1.2"/><rect x="213.6" y="50" width="1.2" height="6.6"/><rect x="211.2" y="50" width="1.2" height="4.6"/><rect x="229.2" y="55.4" width="4.8" height="1.2"/><rect x="231.6" y="53.4" width="2.4" height="1.2"/><rect x="229.2" y="50" width="1.2" height="6.6"/><rect x="231.6" y="50" width="1.2" height="4.6"/><rect x="234" y="53.4" width="6" height="1.2"/><rect x="234" y="55.4" width="6" height="1.2"/><rect x="240" y="55.4" width="4.8" height="1.2"/><rect x="240" y="53.4" width="2.4" height="1.2"/><rect x="243.6" y="50" width="1.2" height="6.6"/><rect x="241.2" y="50" width="1.2" height="4.6"/><rect x="283.2" y="55.4" width="4.8" height="1.2"/><rect x="285.6" y="53.4" width="2.4" height="1.2"/><rect x="283.2" y="50" width="1.2" height="6.6"/><rect x="285.6" y="50" width="1.2" height="4.6"/><rect x="288" y="53.4" width="6" height="1.2"/><rect x="288" y="55.4" width="6" height="1.2"/><rect x="294" y="55.4" width="4.8" height="1.2"/><rect x="294" y="53.4" width="2.4" height="1.2"/><rect x="297.6" y="50" width="1.2" height="6.6"/><rect x="295.2" y="50" width="1.2" height="4.6"/><rect x="313.2" y="55.4" width="4.8" height="1.2"/><rect x="315.6" y="53.4" width="2.4" height="1.2"/><rect x="313.2" y="50" width="1.2" height="6.6"/><rect x="315.6" y="50" width="1.2" height="4.6"/><rect x="318" y="53.4" width="6" height="1.2"/><rect x="318" y="55.4" width="6" height="1.2"/><rect x="324" y="55.4" width="4.8" height="1.2"/><rect x="324" y="53.4" width="2.4" height="1.2"/><rect x="327.6" y="50" width="1.2" height="6.6"/><rect x="325.2" y="50" width="1.2" height="4.6"/><rect x="331.2" y="55.4" width="4.8" height="1.2"/><rect x="333.6" y="53.4" width="2.4" height="1.2"/><rect x="331.2" y="50" width="1.2" height="6.6"/><rect x="333.6" y="50" width="1.2" height="4.6"/><rect x="336" y="53.4" width="6" height="1.2"/><rect x="336" y="55.4" width="6" height="1.2"/><rect x="342" y="55.4" width="4.8" height="1.2"/><rect x="342" y="53.4" width="2.4" height="1.2"/><rect x="345.6" y="50" width="1.2" height="6.6"/><rect x="343.2" y="50" width="1.2" height="4.6"/><rect x="361.2" y="55.4" width="4.8" height="1.2"/><rect x="363.6" y="53.4" width="2.4" height="1.2"/><rect x="361.2" y="50" width="1.2" height="6.6"/><rect x="363.6" y="50" width="1.2" height="4.6"/><rect x="366" y="53.4" width="6" height="1.2"/><rect x="366" y="55.4" width="6" height="1.2"/><rect x="372" y="55.4" width="4.8" height="1.2"/><rect x="372" y="53.4" width="2.4" height="1.2"/><rect x="375.6" y="50" width="1.2" height="6.6"/><rect x="373.2" y="50" width="1.2" height="4.6"/><rect x="385.2" y="55.4" width="4.8" height="1.2"/><rect x="387.6" y="53.4" width="2.4" height="1.2"/><rect x="385.2" y="50" width="1.2" height="6.6"/><rect x="387.6" y="50" width="1.2" height="4.6"/><rect x="390" y="53.4" width="6" height="1.2"/><rect x="390" y="55.4" width="6" height="1.2"/><rect x="396" y="53.4" width="6" height="1.2"/><rect x="396" y="55.4" width="6" height="1.2"/><rect x="402" y="53.4" width="6" height="1.2"/><rect x="402" y="55.4" width="6" height="1.2"/><rect x="408" y="53.4" width="6" height="1.2"/><rect x="408" y="55.4" width="6" height="1.2"/><rect x="414" y="53.4" width="6" height="1.2"/><rect x="414" y="55.4" width="6" height="1.2"/><rect x="420" y="55.4" width="4.8" height="1.2"/><rect x="420" y="53.4" width="2.4" height="1.2"/><rect x="423.6" y="50" width="1.2" height="6.6"/><rect x="421.2" y="50" width="1.2" height="4.6"/></g><rect class="c" x="0" y="0" width="6" height="60"/></svg>